<?xml version="1.0" encoding="UTF-8"?><svg xmlns="http://www.w3.org/2000/svg" xmlns:xlink="http://www.w3.org/1999/xlink" contentScriptType="text/ecmascript" width="375" zoomAndPan="magnify" contentStyleType="text/css" viewBox="0 0 375 374.999991" height="374.999991" preserveAspectRatio="xMidYMid meet" version="1.0"><defs><clipPath id="clip-0"><path d="M 224 89.851562 L 245 89.851562 L 245 117 L 224 117 Z M 224 89.851562 " clip-rule="nonzero"/></clipPath><clipPath id="clip-1"><path d="M 177 89.851562 L 198 89.851562 L 198 117 L 177 117 Z M 177 89.851562 " clip-rule="nonzero"/></clipPath><clipPath id="clip-2"><path d="M 130 89.851562 L 151 89.851562 L 151 117 L 130 117 Z M 130 89.851562 " clip-rule="nonzero"/></clipPath><clipPath id="clip-3"><path d="M 111.558594 103 L 263.808594 103 L 263.808594 133 L 111.558594 133 Z M 111.558594 103 " clip-rule="nonzero"/></clipPath><clipPath id="clip-4"><path d="M 111.558594 132 L 263.808594 132 L 263.808594 236.101562 L 111.558594 236.101562 Z M 111.558594 132 " clip-rule="nonzero"/></clipPath></defs><g clip-path="url(#clip-0)"><path fill="rgb(100%, 100%, 100%)" d="M 244.828125 103.105469 L 244.828125 112.089844 C 244.828125 114.4375 242.925781 116.335938 240.578125 116.335938 L 229.0625 116.335938 C 226.710938 116.335938 224.8125 114.4375 224.8125 112.089844 L 224.8125 94.121094 C 224.8125 91.777344 226.710938 89.875 229.0625 89.875 L 240.578125 89.875 C 242.925781 89.875 244.828125 91.777344 244.828125 94.121094 Z M 244.828125 103.105469 " fill-opacity="1" fill-rule="nonzero"/></g><g clip-path="url(#clip-1)"><path fill="rgb(100%, 100%, 100%)" d="M 197.710938 103.105469 L 197.710938 112.089844 C 197.710938 114.4375 195.804688 116.335938 193.460938 116.335938 L 181.941406 116.335938 C 179.597656 116.335938 177.691406 114.4375 177.691406 112.089844 L 177.691406 94.121094 C 177.691406 91.777344 179.597656 89.875 181.941406 89.875 L 193.460938 89.875 C 195.804688 89.875 197.710938 91.777344 197.710938 94.121094 Z M 197.710938 103.105469 " fill-opacity="1" fill-rule="nonzero"/></g><g clip-path="url(#clip-2)"><path fill="rgb(100%, 100%, 100%)" d="M 130.574219 103.105469 L 130.574219 94.121094 C 130.574219 91.777344 132.476562 89.875 134.824219 89.875 L 146.339844 89.875 C 148.691406 89.875 150.59375 91.777344 150.59375 94.121094 L 150.59375 112.089844 C 150.59375 114.4375 148.691406 116.335938 146.339844 116.335938 L 134.824219 116.335938 C 132.476562 116.335938 130.574219 114.4375 130.574219 112.089844 Z M 130.574219 103.105469 " fill-opacity="1" fill-rule="nonzero"/></g><g clip-path="url(#clip-3)"><path fill="rgb(100%, 100%, 100%)" d="M 263.832031 114.132812 L 263.832031 132.644531 L 111.570312 132.644531 L 111.570312 114.132812 C 111.570312 108.066406 116.539062 103.105469 122.601562 103.105469 L 130.574219 103.105469 L 130.574219 112.089844 C 130.574219 114.4375 132.476562 116.335938 134.824219 116.335938 L 146.339844 116.335938 C 148.691406 116.335938 150.59375 114.4375 150.59375 112.089844 L 150.59375 103.105469 L 177.691406 103.105469 L 177.691406 112.089844 C 177.691406 114.4375 179.597656 116.335938 181.941406 116.335938 L 193.460938 116.335938 C 195.804688 116.335938 197.710938 114.4375 197.710938 112.089844 L 197.710938 103.105469 L 224.8125 103.105469 L 224.8125 112.089844 C 224.8125 114.4375 226.710938 116.335938 229.0625 116.335938 L 240.578125 116.335938 C 242.925781 116.335938 244.828125 114.4375 244.828125 112.089844 L 244.828125 103.105469 L 252.800781 103.105469 C 258.863281 103.105469 263.832031 108.066406 263.832031 114.132812 Z M 263.832031 114.132812 " fill-opacity="1" fill-rule="nonzero"/></g><g clip-path="url(#clip-4)"><path fill="rgb(100%, 100%, 100%)" d="M 263.832031 132.644531 L 263.832031 225.054688 C 263.832031 231.121094 258.863281 236.082031 252.800781 236.082031 L 122.601562 236.082031 C 116.539062 236.082031 111.570312 231.117188 111.570312 225.054688 L 111.570312 132.644531 Z M 215.023438 212.898438 C 223.019531 204.90625 222.808594 193.753906 221.726562 183.476562 C 220.730469 174.023438 218.773438 164.367188 219.9375 156.042969 C 220.039062 155.253906 219.800781 154.546875 219.257812 154.003906 C 218.714844 153.464844 218.007812 153.21875 217.21875 153.324219 C 208.898438 154.496094 199.226562 152.535156 189.765625 151.539062 C 179.480469 150.457031 168.324219 150.246094 160.324219 158.238281 C 149.625 168.925781 152.320312 182.082031 158.976562 188.730469 C 164.875 194.625 170.402344 195.738281 176.746094 194.550781 L 162.792969 208.488281 C 162.257812 209.027344 162.257812 209.894531 162.792969 210.429688 C 163.0625 210.695312 163.414062 210.832031 163.765625 210.832031 C 164.113281 210.832031 164.46875 210.695312 164.734375 210.429688 L 178.683594 196.488281 C 177.496094 202.832031 178.617188 208.359375 184.511719 214.242188 C 191.164062 220.898438 204.324219 223.589844 215.023438 212.898438 Z M 215.023438 212.898438 " fill-opacity="1" fill-rule="nonzero"/></g><path fill="rgb(93.328857%, 13.729858%, 19.219971%)" d="M 221.726562 183.476562 C 222.808594 193.753906 223.019531 204.90625 215.023438 212.898438 C 204.324219 223.589844 191.164062 220.898438 184.511719 214.242188 C 178.617188 208.359375 177.496094 202.832031 178.683594 196.488281 L 184.546875 190.628906 L 207.1875 195.4375 C 207.285156 195.457031 207.382812 195.46875 207.472656 195.46875 C 208.109375 195.46875 208.675781 195.027344 208.816406 194.382812 C 208.972656 193.640625 208.5 192.914062 207.757812 192.757812 L 186.859375 188.320312 L 194.945312 180.242188 L 209.949219 183.425781 C 210.046875 183.445312 210.140625 183.457031 210.234375 183.457031 C 210.871094 183.457031 211.4375 183.011719 211.574219 182.367188 C 211.734375 181.628906 211.261719 180.902344 210.519531 180.746094 L 197.257812 177.925781 L 211.992188 163.207031 C 212.527344 162.671875 212.527344 161.804688 211.992188 161.269531 C 211.453125 160.734375 210.585938 160.734375 210.050781 161.269531 L 201.511719 169.796875 L 199.839844 161.929688 C 199.679688 161.183594 198.953125 160.710938 198.210938 160.867188 C 197.46875 161.027344 196.996094 161.757812 197.152344 162.496094 L 199.199219 172.109375 L 193.550781 177.753906 C 193.546875 177.753906 193.546875 177.757812 193.542969 177.761719 L 189.863281 181.441406 L 185.421875 160.558594 C 185.261719 159.820312 184.535156 159.347656 183.792969 159.503906 C 183.054688 159.664062 182.582031 160.390625 182.738281 161.128906 L 187.550781 183.753906 L 183.15625 188.144531 C 183.152344 188.148438 183.148438 188.152344 183.144531 188.15625 L 176.746094 194.550781 C 170.402344 195.738281 164.875 194.625 158.976562 188.730469 C 152.320312 182.082031 149.625 168.925781 160.324219 158.238281 C 168.324219 150.246094 179.480469 150.457031 189.765625 151.539062 C 199.226562 152.535156 208.898438 154.496094 217.21875 153.324219 C 218.007812 153.21875 218.714844 153.464844 219.257812 154.003906 C 219.800781 154.546875 220.039062 155.253906 219.9375 156.042969 C 218.773438 164.367188 220.730469 174.023438 221.726562 183.476562 Z M 221.726562 183.476562 " fill-opacity="1" fill-rule="nonzero"/><path fill="rgb(100%, 100%, 100%)" d="M 211.992188 161.269531 C 212.527344 161.804688 212.527344 162.671875 211.992188 163.207031 L 197.257812 177.925781 L 210.519531 180.746094 C 211.261719 180.902344 211.734375 181.628906 211.574219 182.367188 C 211.4375 183.011719 210.871094 183.457031 210.234375 183.457031 C 210.140625 183.457031 210.046875 183.445312 209.949219 183.425781 L 194.945312 180.242188 L 186.859375 188.320312 L 207.757812 192.757812 C 208.5 192.914062 208.972656 193.640625 208.816406 194.382812 C 208.675781 195.027344 208.109375 195.46875 207.472656 195.46875 C 207.382812 195.46875 207.285156 195.457031 207.1875 195.4375 L 184.546875 190.628906 L 178.683594 196.488281 C 178.835938 195.667969 179.03125 194.832031 179.257812 193.976562 C 178.402344 194.203125 177.570312 194.394531 176.746094 194.550781 L 183.144531 188.15625 C 183.148438 188.152344 183.152344 188.148438 183.15625 188.144531 L 187.550781 183.753906 L 182.738281 161.128906 C 182.578125 160.390625 183.054688 159.664062 183.792969 159.503906 C 184.535156 159.347656 185.261719 159.820312 185.421875 160.558594 L 189.863281 181.441406 L 193.542969 177.761719 C 193.546875 177.757812 193.546875 177.753906 193.550781 177.753906 L 199.199219 172.109375 L 197.152344 162.496094 C 196.996094 161.757812 197.46875 161.027344 198.210938 160.867188 C 198.953125 160.710938 199.679688 161.183594 199.839844 161.929688 L 201.511719 169.796875 L 210.050781 161.269531 C 210.585938 160.734375 211.453125 160.734375 211.992188 161.269531 Z M 211.992188 161.269531 " fill-opacity="1" fill-rule="nonzero"/><path fill="rgb(100%, 100%, 100%)" d="M 179.257812 193.976562 C 179.03125 194.832031 178.835938 195.667969 178.683594 196.488281 L 164.734375 210.429688 C 164.46875 210.695312 164.113281 210.832031 163.765625 210.832031 C 163.414062 210.832031 163.0625 210.695312 162.792969 210.429688 C 162.257812 209.894531 162.257812 209.027344 162.792969 208.488281 L 176.746094 194.550781 C 177.570312 194.394531 178.402344 194.203125 179.257812 193.976562 Z M 179.257812 193.976562 " fill-opacity="1" fill-rule="nonzero"/></svg>