<svg xmlns="http://www.w3.org/2000/svg" width="375" viewBox="0 0 375 375" height="375" version="1.0"><defs><clipPath id="a"><path d="M 125 64 L 375 64 L 375 375 L 125 375 Z M 125 64"/></clipPath><clipPath id="b"><path d="M 707.699219 191.261719 L 257.527344 659.449219 L -192.816406 226.433594 L 257.351562 -241.75 Z M 707.699219 191.261719"/></clipPath><clipPath id="c"><path d="M 707.699219 191.261719 L 257.527344 659.449219 L -192.816406 226.433594 L 257.351562 -241.75 Z M 707.699219 191.261719"/></clipPath><clipPath id="d"><path d="M 707.699219 191.261719 L 257.527344 659.449219 L -192.816406 226.433594 L 257.351562 -241.75 Z M 707.699219 191.261719"/></clipPath><clipPath id="e"><path d="M 707.699219 191.261719 L 257.527344 659.449219 L -192.816406 226.433594 L 257.351562 -241.75 Z M 707.699219 191.261719"/></clipPath><clipPath id="f"><path d="M 22 44 L 353 44 L 353 333 L 22 333 Z M 22 44"/></clipPath><clipPath id="g"><path d="M 707.699219 191.261719 L 257.527344 659.449219 L -192.816406 226.433594 L 257.351562 -241.75 Z M 707.699219 191.261719"/></clipPath><clipPath id="h"><path d="M 707.699219 191.261719 L 257.527344 659.449219 L -192.816406 226.433594 L 257.351562 -241.75 Z M 707.699219 191.261719"/></clipPath><clipPath id="i"><path d="M 97 81 L 281 81 L 281 289 L 97 289 Z M 97 81"/></clipPath><clipPath id="j"><path d="M 707.699219 191.261719 L 257.527344 659.449219 L -192.816406 226.433594 L 257.351562 -241.75 Z M 707.699219 191.261719"/></clipPath><clipPath id="k"><path d="M 707.699219 191.261719 L 257.527344 659.449219 L -192.816406 226.433594 L 257.351562 -241.75 Z M 707.699219 191.261719"/></clipPath><clipPath id="l"><path d="M 179 0 L 193 0 L 193 92 L 179 92 Z M 179 0"/></clipPath><clipPath id="m"><path d="M 707.699219 191.261719 L 257.527344 659.449219 L -192.816406 226.433594 L 257.351562 -241.75 Z M 707.699219 191.261719"/></clipPath><clipPath id="n"><path d="M 707.699219 191.261719 L 257.527344 659.449219 L -192.816406 226.433594 L 257.351562 -241.75 Z M 707.699219 191.261719"/></clipPath></defs><path fill="#FFF" d="M-37.5 -37.5H412.5V412.5H-37.5z"/><path fill="#FFF" d="M-37.5 -37.5H412.5V412.5H-37.5z"/><path fill="#FFF" d="M-37.5 -37.5H412.5V412.5H-37.5z"/><g clip-path="url(#a)"><g clip-path="url(#b)"><g clip-path="url(#c)"><path fill="#FFF" d="M 182.691406 587.636719 L 125.691406 532.824219 L 575.898438 64.597656 L 632.902344 119.40625 C 651.585938 137.371094 652.160156 167.335938 634.230469 185.984375 L 610.664062 210.496094 L 583 183.898438 C 575.769531 176.945312 564.296875 177.175781 557.359375 184.390625 L 523.304688 219.808594 C 516.359375 227.035156 516.578125 238.507812 523.804688 245.460938 L 551.46875 272.058594 L 471.34375 355.390625 L 443.679688 328.792969 C 436.449219 321.84375 424.976562 322.074219 418.039062 329.289062 L 383.984375 364.703125 C 377.046875 371.917969 377.265625 383.394531 384.496094 390.347656 L 412.160156 416.945312 L 332.03125 500.277344 L 332.023438 500.289062 L 304.359375 473.6875 C 297.128906 466.738281 285.664062 466.960938 278.71875 474.183594 L 244.664062 509.601562 C 237.726562 516.816406 237.945312 528.289062 245.175781 535.242188 L 272.839844 561.839844 L 249.269531 586.351562 C 231.339844 605 201.375 605.597656 182.691406 587.636719 Z M 182.691406 587.636719"/></g></g></g><g clip-path="url(#d)"><g clip-path="url(#e)"><path fill="#FFF" d="M 125.691406 532.824219 L -158.871094 259.214844 C -177.554688 241.25 -178.128906 211.285156 -160.199219 192.636719 L 224.761719 -207.730469 C 242.691406 -226.378906 272.667969 -226.964844 291.335938 -209.015625 L 575.898438 64.597656 Z M 22.882812 145.113281 C 23.835938 193.363281 58.808594 225.730469 93.664062 252.832031 C 125.714844 277.761719 161.226562 300.339844 183.425781 328.5625 C 185.546875 331.214844 188.441406 332.574219 191.710938 332.511719 C 194.972656 332.441406 197.832031 330.988281 199.835938 328.246094 C 220.828125 299.1875 255.472656 275.261719 286.503906 249.113281 C 320.253906 220.691406 353.886719 187 352.933594 138.75 C 351.644531 74.199219 303.179688 43.53125 263.019531 44.316406 C 227.421875 45.003906 207.65625 58.695312 192.554688 81.730469 L 190.886719 -2.449219 C 190.8125 -5.6875 188.140625 -8.253906 184.914062 -8.191406 C 183.296875 -8.160156 181.84375 -7.46875 180.808594 -6.394531 C 179.773438 -5.320312 179.140625 -3.835938 179.171875 -2.222656 L 180.851562 81.945312 C 164.835938 59.523438 144.496094 46.601562 108.953125 47.296875 C 68.792969 48.0625 21.585938 80.554688 22.882812 145.113281 Z M 22.882812 145.113281"/></g></g><g clip-path="url(#f)"><g clip-path="url(#g)"><g clip-path="url(#h)"><path fill="#EE2331" d="M 93.664062 252.832031 C 58.808594 225.730469 23.835938 193.363281 22.882812 145.113281 C 21.585938 80.554688 68.792969 48.0625 108.953125 47.296875 C 144.496094 46.601562 164.835938 59.523438 180.851562 81.945312 L 181.558594 117.332031 L 99.808594 172.71875 C 99.460938 172.953125 99.144531 173.21875 98.871094 173.5 C 96.996094 175.453125 96.675781 178.511719 98.253906 180.84375 C 100.066406 183.519531 103.703125 184.214844 106.378906 182.402344 L 181.835938 131.28125 L 182.808594 180.0625 L 128.636719 216.777344 C 128.289062 217.011719 127.976562 217.277344 127.699219 217.5625 C 125.824219 219.511719 125.503906 222.570312 127.082031 224.902344 C 128.894531 227.578125 132.53125 228.273438 135.207031 226.464844 L 183.089844 194.03125 L 184.863281 282.917969 C 184.925781 286.144531 187.597656 288.710938 190.824219 288.648438 C 194.066406 288.578125 196.628906 285.910156 196.566406 282.679688 L 195.546875 231.179688 L 224.730469 249.332031 C 227.488281 251.050781 231.09375 250.214844 232.808594 247.457031 C 234.511719 244.714844 233.664062 241.097656 230.917969 239.390625 L 195.261719 217.222656 L 194.589844 183.144531 C 194.589844 183.125 194.589844 183.105469 194.589844 183.085938 L 194.144531 160.878906 L 271.574219 209.042969 C 274.320312 210.75 277.925781 209.914062 279.632812 207.167969 C 281.335938 204.421875 280.5 200.816406 277.753906 199.109375 L 193.855469 146.917969 L 193.328125 120.410156 C 193.328125 120.386719 193.328125 120.367188 193.328125 120.347656 L 192.554688 81.730469 C 207.65625 58.695312 227.421875 45.003906 263.019531 44.316406 C 303.179688 43.53125 351.644531 74.199219 352.933594 138.75 C 353.886719 187 320.253906 220.691406 286.503906 249.113281 C 255.472656 275.261719 220.828125 299.1875 199.835938 328.246094 C 197.832031 330.988281 194.972656 332.441406 191.710938 332.511719 C 188.441406 332.574219 185.546875 331.214844 183.425781 328.5625 C 161.226562 300.339844 125.714844 277.761719 93.664062 252.832031 Z M 93.664062 252.832031"/></g></g></g><g clip-path="url(#i)"><g clip-path="url(#j)"><g clip-path="url(#k)"><path fill="#FFF" d="M 190.824219 288.648438 C 187.597656 288.710938 184.925781 286.144531 184.863281 282.914062 L 183.089844 194.03125 L 135.207031 226.464844 C 132.53125 228.273438 128.894531 227.578125 127.082031 224.902344 C 125.503906 222.570312 125.824219 219.511719 127.699219 217.5625 C 127.976562 217.277344 128.289062 217.011719 128.636719 216.777344 L 182.808594 180.0625 L 181.835938 131.28125 L 106.378906 182.402344 C 103.703125 184.214844 100.066406 183.519531 98.253906 180.84375 C 96.675781 178.511719 96.996094 175.453125 98.871094 173.5 C 99.144531 173.214844 99.460938 172.953125 99.808594 172.71875 L 181.558594 117.332031 L 180.851562 81.945312 C 182.9375 84.84375 184.9375 87.921875 186.894531 91.144531 C 188.722656 87.847656 190.597656 84.71875 192.554688 81.730469 L 193.328125 120.347656 C 193.328125 120.367188 193.328125 120.386719 193.328125 120.410156 L 193.855469 146.917969 L 277.753906 199.109375 C 280.5 200.816406 281.335938 204.421875 279.632812 207.167969 C 277.925781 209.914062 274.320312 210.75 271.574219 209.042969 L 194.144531 160.878906 L 194.589844 183.085938 C 194.589844 183.105469 194.589844 183.125 194.589844 183.144531 L 195.261719 217.222656 L 230.917969 239.390625 C 233.664062 241.097656 234.511719 244.714844 232.808594 247.457031 C 231.09375 250.214844 227.488281 251.050781 224.730469 249.332031 L 195.546875 231.179688 L 196.566406 282.679688 C 196.628906 285.910156 194.066406 288.578125 190.824219 288.648438 Z M 190.824219 288.648438"/></g></g></g><g clip-path="url(#l)"><g clip-path="url(#m)"><g clip-path="url(#n)"><path fill="#FFF" d="M 186.894531 91.144531 C 184.9375 87.921875 182.9375 84.84375 180.851562 81.945312 L 179.171875 -2.222656 C 179.140625 -3.835938 179.773438 -5.320312 180.808594 -6.394531 C 181.84375 -7.46875 183.296875 -8.160156 184.914062 -8.191406 C 188.140625 -8.253906 190.8125 -5.6875 190.886719 -2.449219 L 192.554688 81.730469 C 190.597656 84.71875 188.722656 87.847656 186.894531 91.144531 Z M 186.894531 91.144531"/></g></g></g></svg>