<svg xmlns="http://www.w3.org/2000/svg" width="375" viewBox="0 0 375 375" height="375" version="1.0"><defs><clipPath id="a"><path d="M 85 73 L 305 73 L 305 365.546875 L 85 365.546875 Z M 85 73"/></clipPath></defs><path fill="#EE2331" d="M 103.554688 11.792969 C 94.71875 13.925781 94.242188 24.441406 94.242188 24.441406 C 94.1875 23.832031 88.804688 15.320312 80.25 17.414062 C 69.328125 20.089844 70.554688 30.722656 74.375 35.949219 C 83.386719 48.273438 100.734375 51.160156 100.734375 51.160156 C 100.734375 51.160156 114.394531 41.253906 116.8125 26.1875 C 117.871094 19.589844 114.101562 9.25 103.554688 11.792969"/><path fill="#EE2331" d="M 261.371094 11.792969 C 252.535156 13.925781 252.058594 24.441406 252.058594 24.441406 C 252.007812 23.832031 246.621094 15.320312 238.066406 17.414062 C 227.148438 20.089844 228.371094 30.722656 232.191406 35.949219 C 241.207031 48.273438 258.550781 51.160156 258.550781 51.160156 C 258.550781 51.160156 272.210938 41.253906 274.628906 26.1875 C 275.6875 19.589844 271.914062 9.25 261.371094 11.792969"/><path fill="#EE2331" d="M 274.898438 68.566406 C 267.570312 63.195312 259.21875 69.609375 259.21875 69.609375 C 259.648438 69.175781 262.6875 59.578125 255.570312 54.394531 C 246.480469 47.78125 239.140625 55.574219 237.605469 61.859375 C 233.980469 76.6875 242.957031 91.796875 242.957031 91.796875 C 242.957031 91.796875 259.34375 95.835938 272.433594 87.96875 C 278.164062 84.527344 283.640625 74.976562 274.898438 68.566406"/><path fill="#EE2331" d="M 177.773438 57.828125 C 170.183594 55.800781 165.472656 63.589844 165.472656 63.589844 C 165.683594 63.101562 165.117188 54.417969 157.753906 52.476562 C 148.355469 50.003906 144.890625 58.578125 145.632812 64.125 C 147.375 77.203125 159.355469 86.550781 159.355469 86.550781 C 159.355469 86.550781 173.820312 84.667969 181.886719 74.222656 C 185.417969 69.65625 186.832031 60.25 177.773438 57.828125"/><path fill="#EE2331" d="M 148.027344 105.941406 C 142.503906 104.46875 139.078125 110.132812 139.078125 110.132812 C 139.234375 109.78125 138.820312 103.464844 133.464844 102.054688 C 126.628906 100.253906 124.113281 106.492188 124.648438 110.527344 C 125.917969 120.035156 134.628906 126.835938 134.628906 126.835938 C 134.628906 126.835938 145.148438 125.464844 151.019531 117.867188 C 153.585938 114.546875 154.613281 107.707031 148.027344 105.941406"/><path fill="#EE2331" d="M 106.417969 95.871094 C 103.929688 99.144531 106.773438 102.96875 106.773438 102.96875 C 106.582031 102.769531 102.253906 101.324219 99.855469 104.507812 C 96.789062 108.566406 100.265625 111.949219 103.105469 112.6875 C 109.796875 114.433594 116.710938 110.488281 116.710938 110.488281 C 116.710938 110.488281 118.664062 103.105469 115.195312 97.128906 C 113.675781 94.511719 109.386719 91.964844 106.417969 95.871094"/><path fill="#EE2331" d="M 237.007812 43.15625 C 230.828125 40.554688 225.941406 46.59375 225.941406 46.59375 C 226.175781 46.207031 226.707031 38.800781 220.710938 36.304688 C 213.058594 33.117188 209.125 39.960938 209.101562 44.738281 C 209.050781 55.996094 218.085938 65.292969 218.085938 65.292969 C 218.085938 65.292969 230.535156 65.386719 238.574219 57.492188 C 242.089844 54.042969 244.382812 46.257812 237.007812 43.15625"/><path fill="#EE2331" d="M 233.671875 70.917969 C 229.6875 69.246094 226.535156 73.136719 226.535156 73.136719 C 226.6875 72.886719 227.03125 68.113281 223.164062 66.503906 C 218.230469 64.445312 215.695312 68.863281 215.683594 71.941406 C 215.648438 79.199219 221.476562 85.195312 221.476562 85.195312 C 221.476562 85.195312 229.5 85.253906 234.683594 80.167969 C 236.949219 77.941406 238.425781 72.921875 233.671875 70.917969"/><path fill="#EE2331" d="M 309.511719 30.242188 C 306.039062 33.683594 308.761719 38.652344 308.761719 38.652344 C 308.5625 38.382812 303.710938 35.972656 300.367188 39.320312 C 296.089844 43.59375 299.625 48.136719 302.839844 49.480469 C 310.429688 52.632812 319.210938 49.125 319.210938 49.125 C 319.210938 49.125 322.722656 40.765625 319.625 33.160156 C 318.269531 29.835938 313.648438 26.132812 309.511719 30.242188"/><path fill="#EE2331" d="M 302.3125 18.644531 C 295.835938 16.914062 291.816406 23.554688 291.816406 23.554688 C 291.996094 23.144531 291.511719 15.734375 285.226562 14.082031 C 277.210938 11.964844 274.253906 19.285156 274.886719 24.015625 C 276.371094 35.175781 286.597656 43.152344 286.597656 43.152344 C 286.597656 43.152344 298.9375 41.546875 305.824219 32.632812 C 308.832031 28.734375 310.039062 20.707031 302.3125 18.644531"/><path fill="#EE2331" d="M 327.757812 58.558594 C 319.398438 56.324219 314.210938 64.898438 314.210938 64.898438 C 314.445312 64.363281 313.816406 54.800781 305.707031 52.667969 C 295.359375 49.9375 291.539062 59.386719 292.351562 65.492188 C 294.277344 79.898438 307.472656 90.199219 307.472656 90.199219 C 307.472656 90.199219 323.402344 88.125 332.289062 76.621094 C 336.179688 71.582031 337.738281 61.222656 327.757812 58.558594"/><path fill="#EE2331" d="M 133.539062 60.441406 C 124.703125 62.570312 124.226562 73.085938 124.226562 73.085938 C 124.171875 72.476562 118.792969 63.96875 110.234375 66.0625 C 99.316406 68.734375 100.539062 79.367188 104.363281 84.59375 C 113.371094 96.921875 130.722656 99.804688 130.722656 99.804688 C 130.722656 99.804688 144.378906 89.90625 146.796875 74.832031 C 147.859375 68.238281 144.085938 57.898438 133.539062 60.441406"/><path fill="#EE2331" d="M 183.621094 82.546875 C 177.5625 84.007812 177.238281 91.214844 177.238281 91.214844 C 177.199219 90.796875 173.511719 84.964844 167.644531 86.398438 C 160.160156 88.230469 161.003906 95.515625 163.621094 99.101562 C 169.796875 107.550781 181.6875 109.527344 181.6875 109.527344 C 181.6875 109.527344 191.046875 102.738281 192.703125 92.410156 C 193.429688 87.890625 190.84375 80.804688 183.621094 82.546875"/><path fill="#EE2331" d="M 207.480469 59.25 C 203.546875 60.199219 203.339844 64.875 203.339844 64.875 C 203.3125 64.605469 200.917969 60.816406 197.109375 61.75 C 192.25 62.9375 192.796875 67.667969 194.5 69.996094 C 198.507812 75.480469 206.226562 76.761719 206.226562 76.761719 C 206.226562 76.761719 212.300781 72.355469 213.378906 65.652344 C 213.851562 62.714844 212.175781 58.117188 207.480469 59.25"/><path fill="#EE2331" d="M 67.148438 117.597656 C 62.113281 117.722656 60.621094 123.359375 60.621094 123.359375 C 60.664062 123.023438 58.746094 117.785156 53.863281 117.921875 C 47.636719 118.09375 47.054688 123.992188 48.511719 127.273438 C 51.949219 135.007812 61.007812 138.597656 61.007812 138.597656 C 61.007812 138.597656 69.570312 134.828125 72.644531 126.945312 C 73.992188 123.496094 73.15625 117.457031 67.148438 117.597656"/><path fill="#EE2331" d="M 100.671875 116.148438 C 93.414062 117.894531 93.023438 126.53125 93.023438 126.53125 C 92.976562 126.03125 88.558594 119.042969 81.53125 120.761719 C 72.5625 122.960938 73.566406 131.691406 76.707031 135.984375 C 84.109375 146.105469 98.355469 148.476562 98.355469 148.476562 C 98.355469 148.476562 109.574219 140.34375 111.558594 127.964844 C 112.429688 122.550781 109.328125 114.058594 100.671875 116.148438"/><path fill="#EE2331" d="M 291.046875 46.796875 C 286.652344 43.875 281.980469 47.820312 281.980469 47.820312 C 282.222656 47.558594 283.726562 41.914062 279.460938 39.09375 C 274.015625 35.503906 269.964844 40.21875 269.242188 43.90625 C 267.539062 52.597656 273.148438 61.113281 273.148438 61.113281 C 273.148438 61.113281 282.753906 63.023438 290.136719 58.113281 C 293.363281 55.964844 296.285156 50.28125 291.046875 46.796875"/><path fill="#EE2331" d="M 301.101562 85.746094 C 296.707031 82.824219 292.035156 86.765625 292.035156 86.765625 C 292.273438 86.503906 293.78125 80.863281 289.515625 78.046875 C 284.070312 74.457031 280.019531 79.167969 279.296875 82.851562 C 277.59375 91.546875 283.203125 100.066406 283.203125 100.066406 C 283.203125 100.066406 292.808594 101.972656 300.1875 97.058594 C 303.417969 94.914062 306.339844 89.230469 301.101562 85.746094"/><path fill="#EE2331" d="M 290.8125 114.929688 C 286.894531 112.328125 282.726562 115.839844 282.726562 115.839844 C 282.945312 115.605469 284.289062 110.574219 280.480469 108.0625 C 275.621094 104.855469 272.011719 109.0625 271.367188 112.351562 C 269.84375 120.105469 274.851562 127.699219 274.851562 127.699219 C 274.851562 127.699219 283.421875 129.40625 290 125.023438 C 292.882812 123.105469 295.488281 118.035156 290.8125 114.929688"/><path fill="#EE2331" d="M 147.253906 19.589844 C 140.738281 17.390625 136.191406 23.925781 136.191406 23.925781 C 136.398438 23.511719 136.394531 15.902344 130.074219 13.792969 C 122.007812 11.101562 118.496094 18.398438 118.828125 23.285156 C 119.617188 34.804688 129.546875 43.644531 129.546875 43.644531 C 129.546875 43.644531 142.289062 42.8125 149.921875 34.144531 C 153.265625 30.351562 155.03125 22.210938 147.253906 19.589844"/><path fill="#EE2331" d="M 91.179688 78.066406 C 81.4375 78.867188 79.1875 89.96875 79.1875 89.96875 C 79.234375 89.308594 74.921875 79.378906 65.476562 80.191406 C 53.425781 81.226562 52.972656 92.730469 56.164062 98.917969 C 63.707031 113.507812 81.664062 119.441406 81.664062 119.441406 C 81.664062 119.441406 97.824219 111.171875 102.890625 95.550781 C 105.105469 88.71875 102.808594 77.101562 91.179688 78.066406"/><path fill="#EE2331" d="M 155.894531 31.5 C 152.257812 34.410156 154.328125 39.398438 154.328125 39.398438 C 154.167969 39.121094 149.816406 36.34375 146.296875 39.175781 C 141.816406 42.792969 144.699219 47.460938 147.613281 49.058594 C 154.480469 52.816406 163.164062 50.386719 163.164062 50.386719 C 163.164062 50.386719 167.34375 42.820312 165.183594 35.296875 C 164.238281 32.003906 160.234375 28.027344 155.894531 31.5"/><path fill="#EE2331" d="M 61.734375 29.773438 C 58.09375 32.683594 60.167969 37.667969 60.167969 37.667969 C 60.007812 37.394531 55.65625 34.617188 52.140625 37.449219 C 47.652344 41.066406 50.535156 45.730469 53.449219 47.332031 C 60.320312 51.089844 69.003906 48.65625 69.003906 48.65625 C 69.003906 48.65625 73.183594 41.09375 71.023438 33.570312 C 70.074219 30.28125 66.070312 26.300781 61.734375 29.773438"/><path fill="#EE2331" d="M 47.007812 85.382812 C 44.824219 87.132812 46.066406 90.128906 46.066406 90.128906 C 45.972656 89.964844 43.351562 88.292969 41.246094 90 C 38.546875 92.171875 40.28125 94.976562 42.035156 95.933594 C 46.160156 98.195312 51.375 96.734375 51.375 96.734375 C 51.375 96.734375 53.890625 92.183594 52.589844 87.664062 C 52.023438 85.6875 49.617188 83.296875 47.007812 85.382812"/><path fill="#EE2331" d="M 138.019531 45.65625 C 135.832031 47.40625 137.078125 50.402344 137.078125 50.402344 C 136.984375 50.238281 134.367188 48.566406 132.253906 50.265625 C 129.558594 52.441406 131.292969 55.25 133.042969 56.207031 C 137.171875 58.46875 142.386719 57.007812 142.386719 57.007812 C 142.386719 57.007812 144.902344 52.457031 143.601562 47.9375 C 143.035156 45.957031 140.628906 43.570312 138.019531 45.65625"/><path fill="#EE2331" d="M 223.59375 27.417969 C 222.058594 28.644531 222.933594 30.746094 222.933594 30.746094 C 222.867188 30.632812 221.035156 29.460938 219.546875 30.65625 C 217.65625 32.179688 218.875 34.148438 220.105469 34.820312 C 223 36.410156 226.664062 35.382812 226.664062 35.382812 C 226.664062 35.382812 228.425781 32.191406 227.515625 29.019531 C 227.117188 27.628906 225.425781 25.953125 223.59375 27.417969"/><path fill="#EE2331" d="M 325.925781 59.722656 C 324.394531 60.949219 325.269531 63.054688 325.269531 63.054688 C 325.199219 62.9375 323.363281 61.765625 321.882812 62.960938 C 319.988281 64.484375 321.207031 66.457031 322.4375 67.125 C 325.332031 68.710938 328.992188 67.6875 328.992188 67.6875 C 328.992188 67.6875 330.757812 64.496094 329.84375 61.324219 C 329.445312 59.9375 327.757812 58.257812 325.925781 59.722656"/><path fill="#EE2331" d="M 290.933594 102.441406 C 289.402344 103.671875 290.277344 105.773438 290.277344 105.773438 C 290.210938 105.65625 288.371094 104.484375 286.890625 105.679688 C 284.996094 107.207031 286.214844 109.171875 287.445312 109.847656 C 290.339844 111.433594 294 110.40625 294 110.40625 C 294 110.40625 295.765625 107.214844 294.851562 104.046875 C 294.453125 102.660156 292.765625 100.976562 290.933594 102.441406"/><path fill="#EE2331" d="M 274.847656 146.570312 C 273.316406 147.800781 274.1875 149.902344 274.1875 149.902344 C 274.121094 149.785156 272.285156 148.613281 270.800781 149.808594 C 268.910156 151.332031 270.128906 153.300781 271.359375 153.976562 C 274.253906 155.5625 277.914062 154.535156 277.914062 154.535156 C 277.914062 154.535156 279.679688 151.34375 278.765625 148.171875 C 278.367188 146.78125 276.679688 145.105469 274.847656 146.570312"/><path fill="#EE2331" d="M 316.539062 132.925781 C 315.003906 134.152344 315.878906 136.257812 315.878906 136.257812 C 315.8125 136.140625 313.976562 134.96875 312.492188 136.164062 C 310.601562 137.691406 311.816406 139.65625 313.046875 140.328125 C 315.945312 141.917969 319.605469 140.890625 319.605469 140.890625 C 319.605469 140.890625 321.367188 137.699219 320.460938 134.523438 C 320.0625 133.136719 318.371094 131.460938 316.539062 132.925781"/><path fill="#EE2331" d="M 291.679688 177.722656 C 290.417969 174.164062 286.042969 174.414062 286.042969 174.414062 C 286.296875 174.367188 289.589844 171.777344 288.355469 168.335938 C 286.78125 163.9375 282.433594 164.894531 280.433594 166.695312 C 275.714844 170.949219 275.261719 178.234375 275.261719 178.234375 C 275.261719 178.234375 279.945312 183.457031 286.289062 183.816406 C 289.066406 183.972656 293.179688 181.96875 291.679688 177.722656"/><path fill="#EE2331" d="M 265.792969 203.875 C 264.910156 201.371094 261.835938 201.550781 261.835938 201.550781 C 262.011719 201.515625 264.328125 199.699219 263.460938 197.28125 C 262.355469 194.1875 259.300781 194.863281 257.894531 196.128906 C 254.578125 199.117188 254.257812 204.234375 254.257812 204.234375 C 254.257812 204.234375 257.550781 207.90625 262.007812 208.160156 C 263.957031 208.265625 266.855469 206.859375 265.792969 203.875"/><path fill="#EE2331" d="M 275.222656 89.824219 C 273.691406 91.054688 274.5625 93.15625 274.5625 93.15625 C 274.496094 93.039062 272.660156 91.867188 271.175781 93.0625 C 269.285156 94.589844 270.503906 96.554688 271.730469 97.230469 C 274.628906 98.816406 278.289062 97.789062 278.289062 97.789062 C 278.289062 97.789062 280.054688 94.597656 279.140625 91.425781 C 278.742188 90.035156 277.050781 88.359375 275.222656 89.824219"/><path fill="#EE2331" d="M 314.332031 144.757812 C 312.433594 140.359375 306.921875 141.050781 306.921875 141.050781 C 307.230469 140.972656 311.183594 137.417969 309.324219 133.164062 C 306.960938 127.738281 301.546875 129.324219 299.167969 131.769531 C 293.558594 137.546875 293.609375 146.804688 293.609375 146.804688 C 293.609375 146.804688 299.976562 153.003906 308.023438 152.917969 C 311.554688 152.882812 316.585938 150 314.332031 144.757812"/><path fill="#EE2331" d="M 277.453125 195.445312 C 277.90625 191.921875 274.132812 190.28125 274.132812 190.28125 C 274.359375 190.347656 278.226562 189.570312 278.652344 186.15625 C 279.199219 181.800781 275.140625 180.761719 272.695312 181.429688 C 266.933594 182.996094 263.457031 188.921875 263.457031 188.921875 C 263.457031 188.921875 265.171875 195.28125 270.34375 198.265625 C 272.609375 199.574219 276.910156 199.640625 277.453125 195.445312"/><path fill="#EE2331" d="M 254.535156 215.15625 C 254.832031 212.863281 252.375 211.796875 252.375 211.796875 C 252.519531 211.835938 255.035156 211.335938 255.316406 209.109375 C 255.671875 206.277344 253.027344 205.601562 251.4375 206.035156 C 247.683594 207.054688 245.425781 210.910156 245.425781 210.910156 C 245.425781 210.910156 246.539062 215.054688 249.910156 216.996094 C 251.378906 217.847656 254.179688 217.890625 254.535156 215.15625"/><path fill="#EE2331" d="M 299.957031 153.078125 C 296.082031 153.847656 295.6875 158.398438 295.6875 158.398438 C 295.671875 158.132812 293.492188 154.34375 289.738281 155.101562 C 284.953125 156.066406 285.296875 160.699219 286.855469 163.039062 C 290.550781 168.550781 298.023438 170.109375 298.023438 170.109375 C 298.023438 170.109375 304.128906 166.054688 305.449219 159.558594 C 306.027344 156.71875 304.574219 152.167969 299.957031 153.078125"/><path fill="#EE2331" d="M 257.363281 94.597656 C 254.898438 96.574219 256.304688 99.960938 256.304688 99.960938 C 256.195312 99.773438 253.242188 97.890625 250.855469 99.808594 C 247.808594 102.265625 249.765625 105.433594 251.746094 106.519531 C 256.410156 109.070312 262.300781 107.417969 262.300781 107.417969 C 262.300781 107.417969 265.140625 102.285156 263.675781 97.175781 C 263.03125 94.941406 260.3125 92.242188 257.363281 94.597656"/><path fill="#EE2331" d="M 239.46875 105.363281 C 238.140625 106.425781 238.894531 108.242188 238.894531 108.242188 C 238.835938 108.144531 237.25 107.128906 235.96875 108.164062 C 234.332031 109.484375 235.382812 111.1875 236.445312 111.765625 C 238.953125 113.140625 242.121094 112.253906 242.121094 112.253906 C 242.121094 112.253906 243.648438 109.492188 242.855469 106.746094 C 242.511719 105.546875 241.054688 104.097656 239.46875 105.363281"/><path fill="#EE2331" d="M 221.242188 99.957031 C 220.820312 101.601562 222.519531 102.605469 222.519531 102.605469 C 222.414062 102.558594 220.535156 102.703125 220.132812 104.300781 C 219.617188 106.335938 221.488281 107.0625 222.6875 106.894531 C 225.519531 106.480469 227.511719 103.867188 227.511719 103.867188 C 227.511719 103.867188 227.066406 100.746094 224.78125 99.027344 C 223.785156 98.277344 221.742188 97.992188 221.242188 99.957031"/><path fill="#EE2331" d="M 233.625 101.457031 C 232.707031 101.585938 232.546875 102.65625 232.546875 102.65625 C 232.546875 102.59375 232.085938 101.667969 231.1875 101.796875 C 230.046875 101.957031 230.0625 103.054688 230.398438 103.628906 C 231.195312 104.976562 232.9375 105.449219 232.9375 105.449219 C 232.9375 105.449219 234.433594 104.574219 234.832031 103.0625 C 235.011719 102.398438 234.730469 101.304688 233.625 101.457031"/><path fill="#EE2331" d="M 284.496094 62.902344 C 282.964844 64.125 283.839844 66.226562 283.839844 66.226562 C 283.773438 66.117188 281.933594 64.941406 280.453125 66.136719 C 278.558594 67.660156 279.777344 69.632812 281.007812 70.300781 C 283.902344 71.890625 287.5625 70.863281 287.5625 70.863281 C 287.5625 70.863281 289.328125 67.671875 288.414062 64.5 C 288.015625 63.113281 286.328125 61.4375 284.496094 62.902344"/><path fill="#EE2331" d="M 264.742188 51.726562 C 263.207031 52.953125 264.082031 55.054688 264.082031 55.054688 C 264.015625 54.945312 262.175781 53.769531 260.695312 54.960938 C 258.804688 56.488281 260.019531 58.460938 261.25 59.128906 C 264.148438 60.71875 267.804688 59.691406 267.804688 59.691406 C 267.804688 59.691406 269.570312 56.5 268.65625 53.328125 C 268.257812 51.941406 266.574219 50.261719 264.742188 51.726562"/><path fill="#EE2331" d="M 325.953125 113.707031 C 321.046875 111.691406 317.214844 116.496094 317.214844 116.496094 C 317.398438 116.1875 317.769531 110.324219 313.007812 108.386719 C 306.929688 105.914062 303.867188 111.355469 303.878906 115.136719 C 303.914062 124.042969 311.121094 131.34375 311.121094 131.34375 C 311.121094 131.34375 320.972656 131.335938 327.285156 125.046875 C 330.046875 122.289062 331.804688 116.113281 325.953125 113.707031"/><path fill="#EE2331" d="M 277.851562 131.273438 C 275.40625 133.238281 276.800781 136.597656 276.800781 136.597656 C 276.691406 136.414062 273.757812 134.539062 271.390625 136.449219 C 268.363281 138.886719 270.308594 142.035156 272.273438 143.109375 C 276.90625 145.648438 282.753906 144.003906 282.753906 144.003906 C 282.753906 144.003906 285.570312 138.902344 284.117188 133.835938 C 283.480469 131.617188 280.78125 128.9375 277.851562 131.273438"/><path fill="#EE2331" d="M 322.910156 85.957031 C 318.5 89.484375 321.011719 95.519531 321.011719 95.519531 C 320.820312 95.1875 315.546875 91.824219 311.289062 95.253906 C 305.855469 99.632812 309.351562 105.285156 312.878906 107.222656 C 321.199219 111.773438 331.710938 108.828125 331.710938 108.828125 C 331.710938 108.828125 336.777344 99.664062 334.164062 90.554688 C 333.015625 86.570312 328.164062 81.75 322.910156 85.957031"/><path fill="#EE2331" d="M 120.527344 57.058594 C 118.789062 58.449219 119.777344 60.835938 119.777344 60.835938 C 119.703125 60.707031 117.621094 59.375 115.9375 60.734375 C 113.789062 62.460938 115.171875 64.695312 116.5625 65.457031 C 119.851562 67.257812 124.003906 66.09375 124.003906 66.09375 C 124.003906 66.09375 126.007812 62.476562 124.972656 58.875 C 124.519531 57.300781 122.601562 55.394531 120.527344 57.058594"/><path fill="#EE2331" d="M 103.285156 52.6875 C 102.945312 55.464844 105.929688 56.738281 105.929688 56.738281 C 105.746094 56.691406 102.707031 57.320312 102.390625 60.011719 C 101.980469 63.449219 105.183594 64.242188 107.105469 63.707031 C 111.644531 62.445312 114.347656 57.757812 114.347656 57.757812 C 114.347656 57.757812 112.964844 52.75 108.871094 50.421875 C 107.082031 49.402344 103.6875 49.375 103.285156 52.6875"/><path fill="#EE2331" d="M 45.40625 102.578125 C 44.957031 106.253906 48.910156 107.9375 48.910156 107.9375 C 48.667969 107.871094 44.644531 108.707031 44.222656 112.265625 C 43.683594 116.808594 47.917969 117.863281 50.464844 117.152344 C 56.464844 115.480469 60.046875 109.28125 60.046875 109.28125 C 60.046875 109.28125 58.214844 102.660156 52.804688 99.582031 C 50.433594 98.234375 45.945312 98.195312 45.40625 102.578125"/><path fill="#EE2331" d="M 97.171875 55.222656 C 91.121094 52.171875 85.769531 57.914062 85.769531 57.914062 C 86.03125 57.542969 87.089844 50.113281 81.214844 47.175781 C 73.71875 43.425781 69.277344 50.058594 68.921875 54.871094 C 68.082031 66.21875 76.542969 76.226562 76.542969 76.226562 C 76.542969 76.226562 89.089844 77.1875 97.746094 69.792969 C 101.535156 66.558594 104.390625 58.867188 97.171875 55.222656"/><path fill="#EE2331" d="M 44.640625 55.304688 C 42.285156 61.652344 48.597656 66.320312 48.597656 66.320312 C 48.195312 66.101562 40.6875 65.882812 38.425781 72.042969 C 35.535156 79.902344 42.628906 83.570312 47.453125 83.386719 C 58.84375 82.949219 67.84375 73.429688 67.84375 73.429688 C 67.84375 73.429688 67.402344 60.867188 59.070312 53.101562 C 55.425781 49.703125 47.453125 47.730469 44.640625 55.304688"/><path fill="#EE2331" d="M 129.292969 46.199219 C 126.757812 42.71875 122.066406 44.421875 122.066406 44.421875 C 122.320312 44.285156 125.074219 40.390625 122.605469 37.027344 C 119.453125 32.738281 115.019531 35.203125 113.421875 37.820312 C 109.65625 43.996094 111.535156 52.101562 111.535156 52.101562 C 111.535156 52.101562 118.351562 56.277344 125.390625 54.601562 C 128.472656 53.867188 132.316406 50.34375 129.292969 46.199219"/><path fill="#EE2331" d="M 180.941406 130.003906 C 176.691406 129.320312 174.554688 133.820312 174.554688 133.820312 C 174.644531 133.542969 173.855469 128.84375 169.730469 128.191406 C 164.46875 127.359375 163.058594 132.226562 163.765625 135.207031 C 165.4375 142.242188 172.484375 146.683594 172.484375 146.683594 C 172.484375 146.683594 180.269531 144.859375 184.09375 138.71875 C 185.761719 136.03125 186.015625 130.828125 180.941406 130.003906"/><path fill="#EE2331" d="M 177.496094 148.453125 C 174.046875 147.894531 172.3125 151.546875 172.3125 151.546875 C 172.386719 151.328125 171.746094 147.511719 168.402344 146.984375 C 164.132812 146.308594 162.988281 150.257812 163.5625 152.675781 C 164.917969 158.378906 170.632812 161.980469 170.632812 161.980469 C 170.632812 161.980469 176.949219 160.503906 180.050781 155.523438 C 181.40625 153.34375 181.609375 149.121094 177.496094 148.453125"/><path fill="#EE2331" d="M 68.382812 135.109375 C 66.347656 137.945312 68.855469 141.121094 68.855469 141.121094 C 68.683594 140.960938 64.988281 139.839844 63.019531 142.59375 C 60.519531 146.109375 63.546875 148.894531 65.976562 149.457031 C 71.695312 150.777344 77.464844 147.261719 77.464844 147.261719 C 77.464844 147.261719 78.945312 140.957031 75.859375 135.964844 C 74.507812 133.785156 70.808594 131.726562 68.382812 135.109375"/><path fill="#EE2331" d="M 112.710938 132.871094 C 108.875 138.222656 113.605469 144.21875 113.605469 144.21875 C 113.285156 143.90625 106.300781 141.789062 102.597656 146.992188 C 97.871094 153.625 103.589844 158.875 108.167969 159.9375 C 118.957031 162.429688 129.84375 155.800781 129.84375 155.800781 C 129.84375 155.800781 132.636719 143.902344 126.816406 134.484375 C 124.265625 130.375 117.292969 126.488281 112.710938 132.871094"/><path fill="#EE2331" d="M 152.648438 128.355469 C 148.316406 127.65625 146.140625 132.25 146.140625 132.25 C 146.234375 131.964844 145.429688 127.179688 141.226562 126.519531 C 135.871094 125.664062 134.433594 130.621094 135.152344 133.664062 C 136.855469 140.824219 144.03125 145.34375 144.03125 145.34375 C 144.03125 145.34375 151.960938 143.488281 155.855469 137.234375 C 157.554688 134.5 157.8125 129.199219 152.648438 128.355469"/><path fill="#EE2331" d="M 181.0625 110.679688 C 176.738281 109.980469 174.554688 114.570312 174.554688 114.570312 C 174.648438 114.289062 173.847656 109.503906 169.644531 108.835938 C 164.289062 107.988281 162.847656 112.945312 163.570312 115.988281 C 165.273438 123.148438 172.449219 127.667969 172.449219 127.667969 C 172.449219 127.667969 180.378906 125.808594 184.269531 119.558594 C 185.972656 116.824219 186.226562 111.523438 181.0625 110.679688"/><path fill="#EE2331" d="M 139.308594 164.367188 C 134.984375 163.667969 132.800781 168.253906 132.800781 168.253906 C 132.894531 167.976562 132.09375 163.1875 127.890625 162.523438 C 122.535156 161.667969 121.09375 166.632812 121.8125 169.667969 C 123.519531 176.832031 130.695312 181.351562 130.695312 181.351562 C 130.695312 181.351562 138.625 179.496094 142.519531 173.242188 C 144.222656 170.511719 144.472656 165.203125 139.308594 164.367188"/><path fill="#EE2331" d="M 171.0625 166.574219 C 168.628906 167.90625 169.320312 171.042969 169.320312 171.042969 C 169.257812 170.867188 166.996094 168.789062 164.640625 170.082031 C 161.628906 171.738281 162.835938 174.777344 164.382812 176.015625 C 168.019531 178.933594 173.363281 178.40625 173.363281 178.40625 C 173.363281 178.40625 176.605469 174.398438 176.117188 169.765625 C 175.90625 167.734375 173.972656 164.988281 171.0625 166.574219"/><path fill="#EE2331" d="M 190.285156 169.917969 C 188.328125 170.988281 188.886719 173.515625 188.886719 173.515625 C 188.835938 173.375 187.011719 171.703125 185.117188 172.742188 C 182.699219 174.074219 183.671875 176.515625 184.910156 177.511719 C 187.835938 179.863281 192.140625 179.4375 192.140625 179.4375 C 192.140625 179.4375 194.742188 176.214844 194.351562 172.484375 C 194.179688 170.855469 192.621094 168.644531 190.285156 169.917969"/><path fill="#EE2331" d="M 193.292969 149.164062 C 191.667969 150.050781 192.132812 152.152344 192.132812 152.152344 C 192.089844 152.03125 190.570312 150.644531 188.996094 151.507812 C 186.984375 152.617188 187.792969 154.648438 188.824219 155.476562 C 191.261719 157.429688 194.835938 157.078125 194.835938 157.078125 C 194.835938 157.078125 197 154.394531 196.671875 151.296875 C 196.535156 149.941406 195.238281 148.101562 193.292969 149.164062"/><path fill="#EE2331" d="M 169.273438 180.804688 C 166.839844 182.136719 167.539062 185.277344 167.539062 185.277344 C 167.472656 185.097656 165.207031 183.019531 162.851562 184.316406 C 159.84375 185.972656 161.054688 189.007812 162.597656 190.246094 C 166.234375 193.167969 171.582031 192.640625 171.582031 192.640625 C 171.582031 192.640625 174.820312 188.632812 174.332031 183.992188 C 174.117188 181.964844 172.183594 179.21875 169.273438 180.804688"/><path fill="#EE2331" d="M 195.054688 158.839844 C 193.203125 158.242188 191.933594 160.105469 191.933594 160.105469 C 191.992188 159.988281 191.964844 157.832031 190.167969 157.253906 C 187.875 156.519531 186.90625 158.597656 187.015625 159.980469 C 187.277344 163.242188 190.121094 165.710938 190.121094 165.710938 C 190.121094 165.710938 193.726562 165.433594 195.859375 162.953125 C 196.792969 161.867188 197.265625 159.558594 195.054688 158.839844"/><path fill="#EE2331" d="M 169.617188 162.234375 C 168.085938 161.625 166.917969 163.128906 166.917969 163.128906 C 166.976562 163.035156 167.070312 161.21875 165.589844 160.636719 C 163.695312 159.894531 162.769531 161.589844 162.785156 162.761719 C 162.828125 165.523438 165.089844 167.75 165.089844 167.75 C 165.089844 167.75 168.140625 167.710938 170.070312 165.738281 C 170.914062 164.875 171.433594 162.957031 169.617188 162.234375"/><path fill="#EE2331" d="M 196.1875 143.53125 C 194.789062 142.976562 193.71875 144.355469 193.71875 144.355469 C 193.765625 144.265625 193.851562 142.601562 192.492188 142.0625 C 190.753906 141.382812 189.902344 142.945312 189.921875 144.019531 C 189.960938 146.550781 192.039062 148.597656 192.039062 148.597656 C 192.039062 148.597656 194.839844 148.5625 196.605469 146.75 C 197.382812 145.957031 197.859375 144.195312 196.1875 143.53125"/><path fill="#EE2331" d="M 158.515625 205.832031 C 156.988281 205.226562 155.820312 206.734375 155.820312 206.734375 C 155.878906 206.636719 155.96875 204.816406 154.484375 204.234375 C 152.597656 203.496094 151.667969 205.191406 151.6875 206.363281 C 151.730469 209.121094 153.988281 211.351562 153.988281 211.351562 C 153.988281 211.351562 157.042969 211.308594 158.972656 209.335938 C 159.816406 208.476562 160.339844 206.554688 158.515625 205.832031"/><path fill="#EE2331" d="M 156.4375 149.855469 C 155.796875 149.605469 155.308594 150.230469 155.308594 150.230469 C 155.332031 150.191406 155.371094 149.429688 154.75 149.1875 C 153.957031 148.878906 153.570312 149.589844 153.578125 150.074219 C 153.597656 151.230469 154.542969 152.167969 154.542969 152.167969 C 154.542969 152.167969 155.820312 152.148438 156.628906 151.320312 C 156.980469 150.960938 157.199219 150.15625 156.4375 149.855469"/><path fill="#EE2331" d="M 94.253906 116.574219 C 93.609375 116.324219 93.125 116.949219 93.125 116.949219 C 93.148438 116.910156 93.183594 116.148438 92.566406 115.90625 C 91.777344 115.597656 91.386719 116.308594 91.394531 116.792969 C 91.414062 117.949219 92.363281 118.886719 92.363281 118.886719 C 92.363281 118.886719 93.632812 118.867188 94.441406 118.039062 C 94.792969 117.679688 95.015625 116.875 94.253906 116.574219"/><path fill="#EE2331" d="M 75.632812 41.621094 C 74.996094 41.367188 74.507812 41.996094 74.507812 41.996094 C 74.53125 41.953125 74.570312 41.199219 73.945312 40.953125 C 73.15625 40.644531 72.765625 41.355469 72.777344 41.84375 C 72.796875 43 73.742188 43.929688 73.742188 43.929688 C 73.742188 43.929688 75.019531 43.914062 75.824219 43.085938 C 76.179688 42.722656 76.394531 41.925781 75.632812 41.621094"/><path fill="#EE2331" d="M 155.199219 169.578125 C 154.5625 169.328125 154.074219 169.957031 154.074219 169.957031 C 154.097656 169.914062 154.136719 169.15625 153.515625 168.910156 C 152.722656 168.601562 152.335938 169.3125 152.34375 169.804688 C 152.363281 170.957031 153.308594 171.890625 153.308594 171.890625 C 153.308594 171.890625 154.585938 171.871094 155.390625 171.046875 C 155.746094 170.683594 155.960938 169.886719 155.199219 169.578125"/><path fill="#EE2331" d="M 154.96875 164.371094 C 154.042969 164 153.335938 164.910156 153.335938 164.910156 C 153.371094 164.851562 153.429688 163.75 152.527344 163.398438 C 151.382812 162.953125 150.820312 163.980469 150.832031 164.6875 C 150.859375 166.359375 152.230469 167.714844 152.230469 167.714844 C 152.230469 167.714844 154.078125 167.691406 155.246094 166.492188 C 155.757812 165.96875 156.074219 164.808594 154.96875 164.371094"/><path fill="#EE2331" d="M 119.808594 163.511719 C 118.886719 163.144531 118.175781 164.058594 118.175781 164.058594 C 118.207031 164 118.265625 162.898438 117.367188 162.546875 C 116.21875 162.097656 115.660156 163.125 115.671875 163.832031 C 115.699219 165.507812 117.066406 166.859375 117.066406 166.859375 C 117.066406 166.859375 118.917969 166.835938 120.085938 165.636719 C 120.59375 165.117188 120.914062 163.953125 119.808594 163.511719"/><path fill="#EE2331" d="M 80.21875 163.515625 C 79.292969 163.148438 78.585938 164.058594 78.585938 164.058594 C 78.617188 164 78.675781 162.898438 77.777344 162.546875 C 76.632812 162.097656 76.066406 163.125 76.078125 163.835938 C 76.105469 165.507812 77.476562 166.863281 77.476562 166.863281 C 77.476562 166.863281 79.324219 166.835938 80.496094 165.636719 C 81.007812 165.117188 81.324219 163.953125 80.21875 163.515625"/><path fill="#EE2331" d="M 84.296875 147.566406 C 82.871094 147 81.78125 148.402344 81.78125 148.402344 C 81.835938 148.3125 81.917969 146.621094 80.539062 146.074219 C 78.769531 145.382812 77.90625 146.96875 77.921875 148.058594 C 77.964844 150.632812 80.074219 152.714844 80.074219 152.714844 C 80.074219 152.714844 82.921875 152.675781 84.722656 150.832031 C 85.507812 150.027344 85.992188 148.238281 84.296875 147.566406"/><path fill="#EE2331" d="M 103.140625 166.640625 C 101.371094 165.941406 100.019531 167.683594 100.019531 167.683594 C 100.082031 167.570312 100.191406 165.46875 98.472656 164.796875 C 96.28125 163.9375 95.207031 165.902344 95.230469 167.257812 C 95.285156 170.453125 97.902344 173.035156 97.902344 173.035156 C 97.902344 173.035156 101.433594 172.988281 103.664062 170.699219 C 104.644531 169.703125 105.25 167.480469 103.140625 166.640625"/><path fill="#EE2331" d="M 107.101562 191.910156 C 106.175781 191.542969 105.46875 192.453125 105.46875 192.453125 C 105.503906 192.390625 105.558594 191.292969 104.660156 190.941406 C 103.511719 190.492188 102.953125 191.519531 102.960938 192.230469 C 102.992188 193.902344 104.363281 195.253906 104.363281 195.253906 C 104.363281 195.253906 106.207031 195.226562 107.378906 194.03125 C 107.890625 193.507812 108.207031 192.34375 107.101562 191.910156"/><path fill="#EE2331" d="M 166.890625 179.125 C 165.796875 178.691406 164.960938 179.769531 164.960938 179.769531 C 165 179.699219 165.066406 178.398438 164 177.980469 C 162.648438 177.449219 161.980469 178.664062 161.996094 179.503906 C 162.027344 181.480469 163.648438 183.082031 163.648438 183.082031 C 163.648438 183.082031 165.835938 183.050781 167.21875 181.636719 C 167.824219 181.019531 168.199219 179.644531 166.890625 179.125"/><path fill="#EE2331" d="M 170.6875 200.097656 C 169.59375 199.664062 168.757812 200.742188 168.757812 200.742188 C 168.796875 200.671875 168.859375 199.371094 167.800781 198.953125 C 166.441406 198.421875 165.777344 199.636719 165.792969 200.476562 C 165.824219 202.453125 167.445312 204.054688 167.445312 204.054688 C 167.445312 204.054688 169.628906 204.023438 171.015625 202.609375 C 171.621094 201.992188 171.996094 200.617188 170.6875 200.097656"/><path fill="#EE2331" d="M 176.066406 160.683594 C 175.101562 161.277344 175.453125 162.542969 175.453125 162.542969 C 175.425781 162.472656 174.453125 161.671875 173.523438 162.253906 C 172.335938 162.992188 172.890625 164.203125 173.550781 164.675781 C 175.09375 165.789062 177.261719 165.457031 177.261719 165.457031 C 177.261719 165.457031 178.492188 163.753906 178.195312 161.875 C 178.066406 161.054688 177.214844 159.976562 176.066406 160.683594"/><path fill="#EE2331" d="M 187.539062 165.941406 C 186.574219 166.539062 186.925781 167.796875 186.925781 167.796875 C 186.898438 167.730469 185.929688 166.933594 184.996094 167.507812 C 183.804688 168.25 184.367188 169.460938 185.019531 169.933594 C 186.566406 171.042969 188.734375 170.714844 188.734375 170.714844 C 188.734375 170.714844 189.964844 169.011719 189.667969 167.132812 C 189.539062 166.308594 188.6875 165.230469 187.539062 165.941406"/><path fill="#EE2331" d="M 153.527344 119.667969 C 152.5625 120.265625 152.917969 121.527344 152.917969 121.527344 C 152.886719 121.457031 151.917969 120.660156 150.984375 121.238281 C 149.796875 121.976562 150.355469 123.191406 151.011719 123.660156 C 152.554688 124.769531 154.722656 124.441406 154.722656 124.441406 C 154.722656 124.441406 155.953125 122.738281 155.65625 120.859375 C 155.527344 120.039062 154.679688 118.960938 153.527344 119.667969"/><path fill="#EE2331" d="M 189.21875 115.078125 C 188.253906 115.671875 188.605469 116.933594 188.605469 116.933594 C 188.578125 116.863281 187.609375 116.0625 186.675781 116.644531 C 185.488281 117.382812 186.046875 118.59375 186.703125 119.066406 C 188.246094 120.179688 190.414062 119.847656 190.414062 119.847656 C 190.414062 119.847656 191.648438 118.148438 191.347656 116.269531 C 191.21875 115.445312 190.367188 114.367188 189.21875 115.078125"/><path fill="#EE2331" d="M 194.632812 136.113281 C 193.667969 136.707031 194.023438 137.972656 194.023438 137.972656 C 193.992188 137.902344 193.023438 137.101562 192.09375 137.679688 C 190.902344 138.421875 191.460938 139.632812 192.117188 140.105469 C 193.664062 141.214844 195.828125 140.886719 195.828125 140.886719 C 195.828125 140.886719 197.058594 139.179688 196.761719 137.304688 C 196.628906 136.480469 195.78125 135.402344 194.632812 136.113281"/><path fill="#EE2331" d="M 209.316406 119.441406 C 207.773438 120.464844 208.410156 122.523438 208.410156 122.523438 C 208.359375 122.40625 206.730469 121.148438 205.238281 122.148438 C 203.328125 123.425781 204.304688 125.378906 205.40625 126.117188 C 207.996094 127.855469 211.527344 127.199219 211.527344 127.199219 C 211.527344 127.199219 213.460938 124.34375 212.867188 121.28125 C 212.613281 119.941406 211.160156 118.21875 209.316406 119.441406"/><path fill="#EE2331" d="M 208.777344 144.5625 C 207.382812 145.488281 207.960938 147.34375 207.960938 147.34375 C 207.910156 147.242188 206.441406 146.105469 205.089844 147.007812 C 203.363281 148.164062 204.246094 149.929688 205.242188 150.59375 C 207.582031 152.167969 210.777344 151.570312 210.777344 151.570312 C 210.777344 151.570312 212.523438 148.988281 211.988281 146.222656 C 211.757812 145.011719 210.445312 143.457031 208.777344 144.5625"/><path fill="#EE2331" d="M 211.898438 128.933594 C 210.003906 128.496094 208.898438 130.460938 208.898438 130.460938 C 208.949219 130.339844 208.734375 128.195312 206.898438 127.773438 C 204.546875 127.238281 203.761719 129.390625 203.984375 130.757812 C 204.527344 133.984375 207.570312 136.203125 207.570312 136.203125 C 207.570312 136.203125 211.140625 135.617188 213.054688 132.964844 C 213.886719 131.804688 214.164062 129.457031 211.898438 128.933594"/><path fill="#EE2331" d="M 209.609375 152.414062 C 208.179688 152.082031 207.347656 153.566406 207.347656 153.566406 C 207.382812 153.472656 207.222656 151.851562 205.832031 151.535156 C 204.0625 151.128906 203.464844 152.753906 203.640625 153.789062 C 204.046875 156.222656 206.34375 157.898438 206.34375 157.898438 C 206.34375 157.898438 209.039062 157.457031 210.480469 155.449219 C 211.113281 154.578125 211.320312 152.8125 209.609375 152.414062"/><path fill="#EE2331" d="M 211.722656 113.582031 C 210.273438 113.148438 209.328125 114.617188 209.328125 114.617188 C 209.371094 114.527344 209.3125 112.855469 207.910156 112.4375 C 206.125 111.910156 205.410156 113.535156 205.515625 114.605469 C 205.773438 117.121094 208.015625 118.988281 208.015625 118.988281 C 208.015625 118.988281 210.804688 118.710938 212.414062 116.757812 C 213.117188 115.898438 213.445312 114.101562 211.722656 113.582031"/><path fill="#EE2331" d="M 209.753906 138.152344 C 208.308594 137.71875 207.359375 139.183594 207.359375 139.183594 C 207.402344 139.09375 207.34375 137.421875 205.941406 137.007812 C 204.15625 136.476562 203.4375 138.101562 203.546875 139.171875 C 203.808594 141.695312 206.046875 143.554688 206.046875 143.554688 C 206.046875 143.554688 208.835938 143.277344 210.445312 141.324219 C 211.148438 140.46875 211.472656 138.671875 209.753906 138.152344"/><path fill="#EE2331" d="M 207.300781 164.128906 C 206.214844 164.851562 206.660156 166.292969 206.660156 166.292969 C 206.628906 166.214844 205.480469 165.332031 204.429688 166.03125 C 203.085938 166.929688 203.777344 168.304688 204.550781 168.820312 C 206.371094 170.042969 208.851562 169.582031 208.851562 169.582031 C 208.851562 169.582031 210.210938 167.578125 209.796875 165.421875 C 209.613281 164.480469 208.597656 163.269531 207.300781 164.128906"/><path fill="#EE2331" d="M 207.945312 170.238281 C 206.832031 169.976562 206.1875 171.132812 206.1875 171.132812 C 206.214844 171.058594 206.089844 169.804688 205.011719 169.554688 C 203.628906 169.238281 203.167969 170.503906 203.304688 171.308594 C 203.617188 173.199219 205.40625 174.503906 205.40625 174.503906 C 205.40625 174.503906 207.5 174.160156 208.625 172.601562 C 209.113281 171.921875 209.277344 170.546875 207.945312 170.238281"/><path fill="#EE2331" d="M 208.058594 159.144531 C 206.933594 158.804688 206.195312 159.949219 206.195312 159.949219 C 206.230469 159.875 206.1875 158.578125 205.09375 158.253906 C 203.703125 157.84375 203.144531 159.105469 203.230469 159.9375 C 203.429688 161.898438 205.175781 163.347656 205.175781 163.347656 C 205.175781 163.347656 207.347656 163.132812 208.597656 161.609375 C 209.140625 160.945312 209.398438 159.546875 208.058594 159.144531"/><path fill="#EE2331" d="M 203.886719 181.597656 C 202.632812 182.429688 203.15625 184.089844 203.15625 184.089844 C 203.113281 183.996094 201.796875 182.980469 200.585938 183.785156 C 199.035156 184.820312 199.828125 186.40625 200.71875 187 C 202.816406 188.40625 205.679688 187.875 205.679688 187.875 C 205.679688 187.875 207.238281 185.5625 206.761719 183.085938 C 206.554688 182 205.382812 180.609375 203.886719 181.597656"/><path fill="#EE2331" d="M 202.886719 217.242188 C 200.601562 215.441406 197.851562 217.402344 197.851562 217.402344 C 197.996094 217.265625 199.078125 214.234375 196.863281 212.492188 C 194.023438 210.273438 191.582031 212.683594 191.023438 214.679688 C 189.699219 219.386719 192.398438 224.320312 192.398438 224.320312 C 192.398438 224.320312 197.597656 225.796875 201.878906 223.425781 C 203.753906 222.386719 205.609375 219.394531 202.886719 217.242188"/><path fill="#EE2331" d="M 199.976562 200.101562 C 197.699219 201.613281 198.644531 204.636719 198.644531 204.636719 C 198.566406 204.472656 196.171875 202.617188 193.960938 204.085938 C 191.144531 205.972656 192.589844 208.855469 194.207031 209.9375 C 198.03125 212.5 203.238281 211.53125 203.238281 211.53125 C 203.238281 211.53125 206.082031 207.324219 205.214844 202.808594 C 204.832031 200.835938 202.699219 198.300781 199.976562 200.101562"/><path fill="#EE2331" d="M 198.3125 226.703125 C 196.253906 228.070312 197.109375 230.804688 197.109375 230.804688 C 197.039062 230.652344 194.871094 228.976562 192.878906 230.304688 C 190.332031 232.007812 191.640625 234.613281 193.101562 235.59375 C 196.558594 237.90625 201.261719 237.035156 201.261719 237.035156 C 201.261719 237.035156 203.828125 233.230469 203.042969 229.152344 C 202.699219 227.363281 200.773438 225.074219 198.3125 226.703125"/><path fill="#EE2331" d="M 205.792969 191.925781 C 204.472656 190.621094 202.59375 191.667969 202.59375 191.667969 C 202.691406 191.59375 203.589844 189.75 202.308594 188.492188 C 200.667969 186.882812 198.957031 188.246094 198.460938 189.464844 C 197.289062 192.351562 198.652344 195.667969 198.652344 195.667969 C 198.652344 195.667969 201.839844 196.96875 204.71875 195.769531 C 205.976562 195.242188 207.367188 193.476562 205.792969 191.925781"/><path fill="#EE2331" d="M 205.6875 176.046875 C 204.765625 175.769531 204.164062 176.707031 204.164062 176.707031 C 204.191406 176.648438 204.152344 175.585938 203.257812 175.316406 C 202.117188 174.976562 201.660156 176.019531 201.734375 176.699219 C 201.894531 178.304688 203.324219 179.496094 203.324219 179.496094 C 203.324219 179.496094 205.101562 179.316406 206.132812 178.070312 C 206.582031 177.523438 206.789062 176.378906 205.6875 176.046875"/><path fill="#EE2331" d="M 198.894531 198.15625 C 197.972656 197.882812 197.371094 198.816406 197.371094 198.816406 C 197.394531 198.761719 197.359375 197.695312 196.464844 197.425781 C 195.324219 197.089844 194.867188 198.125 194.9375 198.808594 C 195.101562 200.417969 196.535156 201.605469 196.535156 201.605469 C 196.535156 201.605469 198.308594 201.429688 199.339844 200.179688 C 199.789062 199.636719 199.996094 198.488281 198.894531 198.15625"/><path fill="#EE2331" d="M 204.085938 213.464844 C 203.339844 213.242188 202.847656 214 202.847656 214 C 202.867188 213.953125 202.835938 213.085938 202.113281 212.875 C 201.183594 212.59375 200.8125 213.441406 200.871094 213.992188 C 201.003906 215.300781 202.167969 216.265625 202.167969 216.265625 C 202.167969 216.265625 203.609375 216.125 204.445312 215.105469 C 204.808594 214.667969 204.980469 213.734375 204.085938 213.464844"/><path fill="#EE2331" d="M 193.648438 226.792969 C 192.902344 226.566406 192.410156 227.332031 192.410156 227.332031 C 192.429688 227.28125 192.398438 226.414062 191.675781 226.199219 C 190.746094 225.921875 190.375 226.765625 190.433594 227.324219 C 190.566406 228.628906 191.730469 229.59375 191.730469 229.59375 C 191.730469 229.59375 193.171875 229.453125 194.007812 228.4375 C 194.375 227.996094 194.542969 227.058594 193.648438 226.792969"/><path fill="#EE2331" d="M 197.558594 253.84375 C 196.808594 253.617188 196.316406 254.382812 196.316406 254.382812 C 196.339844 254.332031 196.308594 253.464844 195.582031 253.25 C 194.652344 252.976562 194.28125 253.816406 194.339844 254.375 C 194.476562 255.679688 195.636719 256.640625 195.636719 256.640625 C 195.636719 256.640625 197.082031 256.503906 197.917969 255.488281 C 198.28125 255.046875 198.453125 254.113281 197.558594 253.84375"/><path fill="#EE2331" d="M 195.441406 249.199219 C 194.492188 248.914062 193.863281 249.878906 193.863281 249.878906 C 193.890625 249.816406 193.851562 248.71875 192.933594 248.445312 C 191.75 248.09375 191.28125 249.167969 191.351562 249.871094 C 191.519531 251.535156 193 252.761719 193 252.761719 C 193 252.761719 194.835938 252.582031 195.898438 251.289062 C 196.359375 250.726562 196.578125 249.542969 195.441406 249.199219"/><path fill="#EE2331" d="M 245.328125 190.839844 C 242.226562 186.75 236.65625 188.878906 236.65625 188.878906 C 236.957031 188.710938 240.15625 184 237.144531 180.039062 C 233.269531 174.984375 228.027344 178.023438 226.1875 181.183594 C 221.824219 188.648438 224.253906 198.289062 224.253906 198.289062 C 224.253906 198.289062 232.488281 203.121094 240.859375 200.964844 C 244.523438 200.019531 249.035156 195.726562 245.328125 190.839844"/><path fill="#EE2331" d="M 248.679688 161.925781 C 244.109375 163.496094 244.386719 169.09375 244.386719 169.09375 C 244.324219 168.777344 241.046875 164.539062 236.621094 166.070312 C 230.96875 168.046875 232.15625 173.621094 234.441406 176.1875 C 239.839844 182.265625 249.175781 182.917969 249.175781 182.917969 C 249.175781 182.917969 255.90625 176.984375 256.429688 168.882812 C 256.65625 165.332031 254.132812 160.050781 248.679688 161.925781"/><path fill="#EE2331" d="M 256.835938 128.691406 C 254.171875 129.609375 254.332031 132.871094 254.332031 132.871094 C 254.296875 132.683594 252.386719 130.214844 249.804688 131.109375 C 246.507812 132.261719 247.203125 135.511719 248.535156 137.003906 C 251.683594 140.550781 257.121094 140.929688 257.121094 140.929688 C 257.121094 140.929688 261.042969 137.46875 261.351562 132.746094 C 261.484375 130.679688 260.015625 127.601562 256.835938 128.691406"/><path fill="#EE2331" d="M 232.269531 129.773438 C 228.738281 130.988281 228.949219 135.3125 228.949219 135.3125 C 228.902344 135.066406 226.367188 131.792969 222.949219 132.976562 C 218.578125 134.503906 219.496094 138.8125 221.261719 140.796875 C 225.433594 145.496094 232.652344 146.003906 232.652344 146.003906 C 232.652344 146.003906 237.855469 141.414062 238.261719 135.152344 C 238.433594 132.40625 236.484375 128.324219 232.269531 129.773438"/><path fill="#EE2331" d="M 232.269531 83.660156 C 228.738281 84.878906 228.949219 89.203125 228.949219 89.203125 C 228.902344 88.957031 226.367188 85.683594 222.949219 86.867188 C 218.578125 88.394531 219.496094 92.703125 221.261719 94.691406 C 225.4375 99.386719 232.652344 99.894531 232.652344 99.894531 C 232.652344 99.894531 237.855469 95.304688 238.261719 89.039062 C 238.433594 86.296875 236.488281 82.210938 232.269531 83.660156"/><path fill="#EE2331" d="M 221.792969 171.117188 C 220.394531 170.5625 219.328125 171.933594 219.328125 171.933594 C 219.378906 171.84375 219.464844 170.1875 218.113281 169.652344 C 216.382812 168.972656 215.53125 170.523438 215.546875 171.589844 C 215.582031 174.109375 217.648438 176.152344 217.648438 176.152344 C 217.648438 176.152344 220.433594 176.117188 222.203125 174.320312 C 222.976562 173.53125 223.453125 171.777344 221.792969 171.117188"/><path fill="#EE2331" d="M 226.238281 201.871094 C 222.109375 203.292969 222.355469 208.351562 222.355469 208.351562 C 222.304688 208.0625 219.339844 204.230469 215.339844 205.621094 C 210.234375 207.40625 211.304688 212.441406 213.371094 214.757812 C 218.25 220.253906 226.683594 220.847656 226.683594 220.847656 C 226.683594 220.847656 232.769531 215.476562 233.242188 208.160156 C 233.449219 204.953125 231.171875 200.179688 226.238281 201.871094"/><path fill="#EE2331" d="M 259.160156 153.167969 C 257.480469 150.359375 253.804688 151.3125 253.804688 151.3125 C 254.011719 151.226562 256.367188 148.472656 254.734375 145.75 C 252.636719 142.28125 249.105469 143.84375 247.714844 145.710938 C 244.433594 150.128906 245.289062 156.40625 245.289062 156.40625 C 245.289062 156.40625 250.164062 160.042969 255.617188 159.265625 C 258.003906 158.921875 261.160156 156.519531 259.160156 153.167969"/><path fill="#EE2331" d="M 246.617188 99.53125 C 245.429688 97.546875 242.835938 98.222656 242.835938 98.222656 C 242.976562 98.164062 244.640625 96.214844 243.488281 94.292969 C 242.007812 91.835938 239.511719 92.9375 238.527344 94.265625 C 236.207031 97.382812 236.8125 101.820312 236.8125 101.820312 C 236.8125 101.820312 240.257812 104.390625 244.109375 103.84375 C 245.796875 103.601562 248.03125 101.90625 246.617188 99.53125"/><path fill="#EE2331" d="M 263.117188 120.527344 C 261.5 117.820312 257.953125 118.738281 257.953125 118.738281 C 258.148438 118.65625 260.421875 116 258.851562 113.375 C 256.828125 110.023438 253.417969 111.527344 252.078125 113.332031 C 248.90625 117.597656 249.734375 123.652344 249.734375 123.652344 C 249.734375 123.652344 254.441406 127.160156 259.703125 126.414062 C 262.003906 126.082031 265.050781 123.765625 263.117188 120.527344"/><path fill="#EE2331" d="M 239.742188 118.769531 C 237.386719 114.832031 232.234375 116.171875 232.234375 116.171875 C 232.519531 116.050781 235.824219 112.1875 233.535156 108.378906 C 230.597656 103.503906 225.640625 105.695312 223.695312 108.320312 C 219.089844 114.511719 220.292969 123.308594 220.292969 123.308594 C 220.292969 123.308594 227.128906 128.410156 234.773438 127.324219 C 238.117188 126.84375 242.546875 123.476562 239.742188 118.769531"/><path fill="#EE2331" d="M 231.941406 153.238281 C 230.339844 150.5625 226.835938 151.46875 226.835938 151.46875 C 227.035156 151.394531 229.273438 148.769531 227.71875 146.175781 C 225.726562 142.867188 222.355469 144.355469 221.039062 146.136719 C 217.90625 150.347656 218.722656 156.324219 218.722656 156.324219 C 218.722656 156.324219 223.371094 159.785156 228.5625 159.050781 C 230.835938 158.71875 233.84375 156.4375 231.941406 153.238281"/><path fill="#EE2331" d="M 245.722656 159.421875 C 244.269531 158.539062 242.820312 159.871094 242.820312 159.871094 C 242.890625 159.78125 243.300781 157.949219 241.894531 157.09375 C 240.089844 156.011719 238.847656 157.582031 238.667969 158.777344 C 238.230469 161.597656 240.148438 164.269531 240.148438 164.269531 C 240.148438 164.269531 243.269531 164.753906 245.582031 163.074219 C 246.589844 162.34375 247.457031 160.476562 245.722656 159.421875"/><path fill="#EE2331" d="M 226.894531 162.894531 C 225.007812 161.742188 223.121094 163.472656 223.121094 163.472656 C 223.214844 163.359375 223.746094 160.972656 221.917969 159.863281 C 219.574219 158.457031 217.960938 160.496094 217.722656 162.054688 C 217.15625 165.722656 219.648438 169.1875 219.648438 169.1875 C 219.648438 169.1875 223.707031 169.820312 226.710938 167.640625 C 228.019531 166.6875 229.148438 164.257812 226.894531 162.894531"/><path fill="#EE2331" d="M 251.214844 186.160156 C 250.035156 185.441406 248.851562 186.523438 248.851562 186.523438 C 248.910156 186.453125 249.246094 184.960938 248.097656 184.269531 C 246.636719 183.386719 245.628906 184.664062 245.480469 185.636719 C 245.125 187.929688 246.683594 190.097656 246.683594 190.097656 C 246.683594 190.097656 249.21875 190.496094 251.097656 189.125 C 251.917969 188.535156 252.621094 187.015625 251.214844 186.160156"/><path fill="#EE2331" d="M 218.621094 177.878906 C 217.820312 177.394531 217.019531 178.128906 217.019531 178.128906 C 217.058594 178.078125 217.285156 177.066406 216.507812 176.597656 C 215.511719 176 214.824219 176.863281 214.722656 177.523438 C 214.484375 179.082031 215.542969 180.550781 215.542969 180.550781 C 215.542969 180.550781 217.265625 180.824219 218.542969 179.898438 C 219.101562 179.492188 219.578125 178.460938 218.621094 177.878906"/><path fill="#EE2331" d="M 283.917969 185.453125 C 283.117188 184.96875 282.316406 185.707031 282.316406 185.707031 C 282.355469 185.65625 282.585938 184.644531 281.808594 184.171875 C 280.8125 183.574219 280.128906 184.441406 280.027344 185.101562 C 279.785156 186.660156 280.84375 188.128906 280.84375 188.128906 C 280.84375 188.128906 282.566406 188.402344 283.84375 187.472656 C 284.398438 187.070312 284.878906 186.039062 283.917969 185.453125"/><path fill="#EE2331" d="M 240.292969 222.835938 C 239.492188 222.347656 238.691406 223.085938 238.691406 223.085938 C 238.730469 223.035156 238.957031 222.019531 238.179688 221.554688 C 237.1875 220.953125 236.5 221.824219 236.402344 222.484375 C 236.160156 224.042969 237.214844 225.511719 237.214844 225.511719 C 237.214844 225.511719 238.9375 225.78125 240.214844 224.851562 C 240.773438 224.453125 241.25 223.417969 240.292969 222.835938"/><path fill="#EE2331" d="M 220.921875 191.40625 C 220.121094 190.914062 219.316406 191.652344 219.316406 191.652344 C 219.359375 191.601562 219.582031 190.589844 218.804688 190.121094 C 217.8125 189.519531 217.125 190.390625 217.027344 191.050781 C 216.785156 192.609375 217.847656 194.078125 217.847656 194.078125 C 217.847656 194.078125 219.566406 194.351562 220.84375 193.417969 C 221.398438 193.019531 221.882812 191.984375 220.921875 191.40625"/><path fill="#EE2331" d="M 246.839844 217.292969 C 245.554688 216.511719 244.261719 217.691406 244.261719 217.691406 C 244.328125 217.609375 244.691406 215.984375 243.441406 215.226562 C 241.84375 214.269531 240.742188 215.664062 240.578125 216.726562 C 240.191406 219.226562 241.898438 221.585938 241.898438 221.585938 C 241.898438 221.585938 244.664062 222.027344 246.714844 220.53125 C 247.609375 219.886719 248.378906 218.230469 246.839844 217.292969"/><path fill="#EE2331" d="M 295.300781 172.207031 C 294.5 171.714844 293.699219 172.453125 293.699219 172.453125 C 293.738281 172.40625 293.964844 171.390625 293.1875 170.921875 C 292.195312 170.324219 291.511719 171.191406 291.410156 171.851562 C 291.164062 173.410156 292.230469 174.878906 292.230469 174.878906 C 292.230469 174.878906 293.945312 175.152344 295.222656 174.222656 C 295.78125 173.820312 296.261719 172.785156 295.300781 172.207031"/><path fill="#EE2331" d="M 272.769531 160.144531 C 271.96875 159.660156 271.167969 160.398438 271.167969 160.398438 C 271.207031 160.347656 271.433594 159.335938 270.65625 158.863281 C 269.664062 158.265625 268.980469 159.132812 268.878906 159.792969 C 268.632812 161.351562 269.699219 162.820312 269.699219 162.820312 C 269.699219 162.820312 271.414062 163.09375 272.691406 162.164062 C 273.25 161.761719 273.730469 160.730469 272.769531 160.144531"/><path fill="#EE2331" d="M 289.75 130.730469 C 288.949219 130.242188 288.144531 130.980469 288.144531 130.980469 C 288.1875 130.925781 288.410156 129.914062 287.632812 129.445312 C 286.640625 128.847656 285.953125 129.71875 285.855469 130.378906 C 285.613281 131.933594 286.675781 133.402344 286.675781 133.402344 C 286.675781 133.402344 288.394531 133.675781 289.667969 132.746094 C 290.226562 132.34375 290.707031 131.3125 289.75 130.730469"/><path fill="#EE2331" d="M 249.121094 140.316406 C 248.320312 139.828125 247.515625 140.566406 247.515625 140.566406 C 247.558594 140.515625 247.785156 139.503906 247.003906 139.03125 C 246.011719 138.4375 245.324219 139.300781 245.226562 139.960938 C 244.984375 141.519531 246.046875 142.988281 246.046875 142.988281 C 246.046875 142.988281 247.765625 143.261719 249.042969 142.335938 C 249.597656 141.929688 250.078125 140.898438 249.121094 140.316406"/><path fill="#EE2331" d="M 220.703125 197.027344 C 219.523438 196.308594 218.34375 197.394531 218.34375 197.394531 C 218.402344 197.324219 218.734375 195.828125 217.589844 195.140625 C 216.125 194.253906 215.117188 195.535156 214.96875 196.507812 C 214.617188 198.800781 216.175781 200.96875 216.175781 200.96875 C 216.175781 200.96875 218.707031 201.363281 220.585938 200 C 221.40625 199.402344 222.113281 197.886719 220.703125 197.027344"/><path fill="#EE2331" d="M 220.8125 228.332031 C 219.632812 227.613281 218.453125 228.699219 218.453125 228.699219 C 218.511719 228.625 218.84375 227.128906 217.699219 226.441406 C 216.238281 225.558594 215.226562 226.835938 215.082031 227.808594 C 214.722656 230.101562 216.285156 232.269531 216.285156 232.269531 C 216.285156 232.269531 218.816406 232.667969 220.699219 231.304688 C 221.519531 230.703125 222.222656 229.183594 220.8125 228.332031"/><path fill="#EE2331" d="M 217.515625 233.261719 C 216.335938 232.546875 215.15625 233.628906 215.15625 233.628906 C 215.214844 233.554688 215.546875 232.0625 214.402344 231.371094 C 212.941406 230.492188 211.929688 231.765625 211.78125 232.746094 C 211.429688 235.035156 212.988281 237.199219 212.988281 237.199219 C 212.988281 237.199219 215.519531 237.597656 217.402344 236.234375 C 218.222656 235.640625 218.925781 234.121094 217.515625 233.261719"/><path fill="#EE2331" d="M 219.011719 219.703125 C 217.511719 218.785156 216.011719 220.164062 216.011719 220.164062 C 216.085938 220.070312 216.507812 218.171875 215.054688 217.292969 C 213.191406 216.171875 211.90625 217.796875 211.722656 219.035156 C 211.269531 221.949219 213.25 224.707031 213.25 224.707031 C 213.25 224.707031 216.472656 225.210938 218.863281 223.472656 C 219.910156 222.71875 220.800781 220.785156 219.011719 219.703125"/><path fill="#EE2331" d="M 208.390625 101.363281 C 206.707031 102.613281 207.558594 104.882812 207.558594 104.882812 C 207.492188 104.761719 205.582031 103.4375 203.953125 104.652344 C 201.878906 106.203125 203.101562 108.351562 204.382812 109.117188 C 207.410156 110.917969 211.347656 109.964844 211.347656 109.964844 C 211.347656 109.964844 213.351562 106.636719 212.503906 103.222656 C 212.132812 101.730469 210.398438 99.875 208.390625 101.363281"/><path fill="#EE2331" d="M 191.644531 103.109375 C 189.546875 104.402344 190.3125 107.148438 190.3125 107.148438 C 190.25 107 188.144531 105.257812 186.117188 106.515625 C 183.535156 108.121094 184.75 110.757812 186.171875 111.78125 C 189.53125 114.199219 194.238281 113.480469 194.238281 113.480469 C 194.238281 113.480469 196.917969 109.78125 196.269531 105.695312 C 195.984375 103.914062 194.144531 101.570312 191.644531 103.109375"/><path fill="#EE2331" d="M 207.730469 92.015625 C 206.09375 93.023438 206.691406 95.164062 206.691406 95.164062 C 206.640625 95.046875 205 93.691406 203.417969 94.671875 C 201.40625 95.925781 202.351562 97.976562 203.460938 98.777344 C 206.082031 100.660156 209.75 100.101562 209.75 100.101562 C 209.75 100.101562 211.839844 97.21875 211.335938 94.03125 C 211.109375 92.640625 209.675781 90.8125 207.730469 92.015625"/><path fill="#EE2331" d="M 155.230469 140.179688 C 154.265625 140.773438 154.621094 142.035156 154.621094 142.035156 C 154.589844 141.964844 153.617188 141.167969 152.6875 141.742188 C 151.5 142.484375 152.054688 143.695312 152.714844 144.167969 C 154.257812 145.28125 156.421875 144.949219 156.421875 144.949219 C 156.421875 144.949219 157.65625 143.246094 157.359375 141.367188 C 157.226562 140.546875 156.378906 139.46875 155.230469 140.179688"/><path fill="#EE2331" d="M 149.203125 80.15625 C 148.242188 80.75 148.59375 82.015625 148.59375 82.015625 C 148.5625 81.945312 147.59375 81.144531 146.664062 81.722656 C 145.472656 82.460938 146.03125 83.675781 146.6875 84.148438 C 148.234375 85.261719 150.398438 84.929688 150.398438 84.929688 C 150.398438 84.929688 151.628906 83.226562 151.332031 81.34375 C 151.199219 80.527344 150.351562 79.449219 149.203125 80.15625"/><path fill="#EE2331" d="M 183.796875 75.488281 C 182.832031 76.082031 183.183594 77.34375 183.183594 77.34375 C 183.15625 77.273438 182.183594 76.476562 181.253906 77.050781 C 180.066406 77.792969 180.621094 79.003906 181.28125 79.476562 C 182.824219 80.589844 184.988281 80.253906 184.988281 80.253906 C 184.988281 80.253906 186.222656 78.554688 185.925781 76.675781 C 185.792969 75.855469 184.945312 74.777344 183.796875 75.488281"/><path fill="#EE2331" d="M 205.378906 48.417969 C 203.453125 49.601562 204.160156 52.113281 204.160156 52.113281 C 204.101562 51.976562 202.171875 50.386719 200.3125 51.539062 C 197.945312 53.007812 199.058594 55.425781 200.363281 56.363281 C 203.441406 58.570312 207.753906 57.914062 207.753906 57.914062 C 207.753906 57.914062 210.210938 54.527344 209.617188 50.785156 C 209.355469 49.152344 207.664062 47.003906 205.378906 48.417969"/><path fill="#EE2331" d="M 193.878906 73.214844 C 191.960938 74.398438 192.660156 76.914062 192.660156 76.914062 C 192.601562 76.773438 190.671875 75.183594 188.816406 76.332031 C 186.449219 77.804688 187.5625 80.222656 188.867188 81.160156 C 191.941406 83.371094 196.253906 82.714844 196.253906 82.714844 C 196.253906 82.714844 198.710938 79.324219 198.121094 75.582031 C 197.855469 73.949219 196.171875 71.800781 193.878906 73.214844"/><path fill="#EE2331" d="M 203.632812 78.960938 C 201.105469 80.519531 202.03125 83.828125 202.03125 83.828125 C 201.953125 83.644531 199.410156 81.550781 196.972656 83.066406 C 193.855469 85 195.320312 88.179688 197.035156 89.414062 C 201.085938 92.324219 206.761719 91.457031 206.761719 91.457031 C 206.761719 91.457031 209.992188 87 209.210938 82.074219 C 208.867188 79.921875 206.644531 77.101562 203.632812 78.960938"/><path fill="#EE2331" d="M 169.328125 40.296875 C 168.441406 40.84375 168.769531 42.003906 168.769531 42.003906 C 168.742188 41.9375 167.847656 41.207031 166.992188 41.734375 C 165.898438 42.414062 166.410156 43.53125 167.011719 43.96875 C 168.433594 44.988281 170.425781 44.683594 170.425781 44.683594 C 170.425781 44.683594 171.5625 43.117188 171.285156 41.390625 C 171.167969 40.632812 170.390625 39.644531 169.328125 40.296875"/><path fill="#EE2331" d="M 170.667969 46.03125 C 168.507812 47.359375 169.296875 50.183594 169.296875 50.183594 C 169.230469 50.03125 167.066406 48.242188 164.980469 49.535156 C 162.320312 51.191406 163.570312 53.902344 165.035156 54.957031 C 168.492188 57.441406 173.335938 56.703125 173.335938 56.703125 C 173.335938 56.703125 176.09375 52.894531 175.429688 48.695312 C 175.136719 46.855469 173.238281 44.445312 170.667969 46.03125"/><path fill="#EE2331" d="M 152.933594 153.890625 C 151.222656 154.945312 151.851562 157.1875 151.851562 157.1875 C 151.796875 157.0625 150.078125 155.644531 148.425781 156.671875 C 146.3125 157.980469 147.308594 160.132812 148.46875 160.96875 C 151.207031 162.941406 155.054688 162.351562 155.054688 162.351562 C 155.054688 162.351562 157.238281 159.335938 156.710938 156.003906 C 156.476562 154.546875 154.972656 152.632812 152.933594 153.890625"/><path fill="#EE2331" d="M 149.1875 143.996094 C 147.304688 145.160156 147.992188 147.625 147.992188 147.625 C 147.9375 147.488281 146.042969 145.929688 144.222656 147.058594 C 141.898438 148.503906 142.992188 150.871094 144.273438 151.796875 C 147.289062 153.964844 151.519531 153.316406 151.519531 153.316406 C 151.519531 153.316406 153.929688 149.992188 153.347656 146.324219 C 153.09375 144.714844 151.4375 142.613281 149.1875 143.996094"/><path fill="#EE2331" d="M 134.539062 153.480469 C 132.652344 154.640625 133.34375 157.109375 133.34375 157.109375 C 133.285156 156.972656 131.394531 155.414062 129.570312 156.539062 C 127.25 157.984375 128.339844 160.355469 129.617188 161.273438 C 132.636719 163.445312 136.871094 162.800781 136.871094 162.800781 C 136.871094 162.800781 139.277344 159.472656 138.695312 155.804688 C 138.441406 154.199219 136.785156 152.09375 134.539062 153.480469"/><path fill="#EE2331" d="M 142.707031 177.609375 C 139.808594 179.402344 140.867188 183.203125 140.867188 183.203125 C 140.777344 182.996094 137.859375 180.589844 135.050781 182.328125 C 131.46875 184.558594 133.15625 188.207031 135.125 189.628906 C 139.78125 192.976562 146.304688 191.976562 146.304688 191.976562 C 146.304688 191.976562 150.015625 186.851562 149.117188 181.195312 C 148.722656 178.722656 146.171875 175.472656 142.707031 177.609375"/><path fill="#EE2331" d="M 149.914062 191.703125 C 147.660156 193.09375 148.484375 196.046875 148.484375 196.046875 C 148.414062 195.890625 146.148438 194.019531 143.964844 195.367188 C 141.183594 197.101562 142.492188 199.9375 144.023438 201.039062 C 147.640625 203.640625 152.710938 202.867188 152.710938 202.867188 C 152.710938 202.867188 155.59375 198.882812 154.898438 194.484375 C 154.589844 192.566406 152.605469 190.042969 149.914062 191.703125"/><path fill="#EE2331" d="M 148.339844 87.953125 C 145 90.011719 146.222656 94.390625 146.222656 94.390625 C 146.121094 94.152344 142.761719 91.382812 139.527344 93.382812 C 135.410156 95.949219 137.347656 100.148438 139.613281 101.785156 C 144.972656 105.632812 152.480469 104.488281 152.480469 104.488281 C 152.480469 104.488281 156.75 98.589844 155.71875 92.082031 C 155.265625 89.234375 152.324219 85.496094 148.339844 87.953125"/><path fill="#EE2331" d="M 191.4375 119.871094 C 188.683594 121.566406 189.691406 125.171875 189.691406 125.171875 C 189.609375 124.976562 186.84375 122.695312 184.175781 124.347656 C 180.78125 126.460938 182.378906 129.917969 184.25 131.265625 C 188.664062 134.441406 194.851562 133.492188 194.851562 133.492188 C 194.851562 133.492188 198.367188 128.632812 197.515625 123.269531 C 197.144531 120.921875 194.722656 117.84375 191.4375 119.871094"/><path fill="#EE2331" d="M 147.578125 123.277344 C 146.617188 123.875 146.96875 125.136719 146.96875 125.136719 C 146.941406 125.070312 145.96875 124.269531 145.039062 124.847656 C 143.851562 125.585938 144.40625 126.800781 145.0625 127.269531 C 146.609375 128.378906 148.773438 128.050781 148.773438 128.050781 C 148.773438 128.050781 150.003906 126.347656 149.710938 124.46875 C 149.578125 123.648438 148.726562 122.570312 147.578125 123.277344"/><path fill="#EE2331" d="M 121.136719 100.742188 C 120.171875 101.332031 120.527344 102.597656 120.527344 102.597656 C 120.496094 102.527344 119.527344 101.730469 118.59375 102.304688 C 117.402344 103.046875 117.964844 104.257812 118.617188 104.730469 C 120.164062 105.84375 122.328125 105.511719 122.328125 105.511719 C 122.328125 105.511719 123.5625 103.808594 123.265625 101.933594 C 123.132812 101.109375 122.285156 100.03125 121.136719 100.742188"/><path fill="#EE2331" d="M 77.699219 77.632812 C 76.734375 78.226562 77.085938 79.492188 77.085938 79.492188 C 77.0625 79.421875 76.089844 78.621094 75.15625 79.199219 C 73.96875 79.9375 74.527344 81.152344 75.179688 81.625 C 76.726562 82.734375 78.894531 82.40625 78.894531 82.40625 C 78.894531 82.40625 80.128906 80.699219 79.832031 78.820312 C 79.699219 78.003906 78.847656 76.925781 77.699219 77.632812"/><path fill="#EE2331" d="M 64.816406 50.316406 C 63.851562 50.914062 64.207031 52.175781 64.207031 52.175781 C 64.175781 52.105469 63.207031 51.308594 62.273438 51.886719 C 61.082031 52.625 61.644531 53.839844 62.296875 54.308594 C 63.84375 55.417969 66.011719 55.089844 66.011719 55.089844 C 66.011719 55.089844 67.242188 53.390625 66.945312 51.511719 C 66.8125 50.6875 65.964844 49.609375 64.816406 50.316406"/><path fill="#EE2331" d="M 88.847656 48.863281 C 87.882812 49.460938 88.234375 50.722656 88.234375 50.722656 C 88.207031 50.652344 87.234375 49.855469 86.304688 50.433594 C 85.117188 51.171875 85.671875 52.386719 86.332031 52.855469 C 87.875 53.96875 90.039062 53.636719 90.039062 53.636719 C 90.039062 53.636719 91.273438 51.9375 90.976562 50.054688 C 90.84375 49.234375 89.996094 48.15625 88.847656 48.863281"/><path fill="#EE2331" d="M 98.007812 72.585938 C 97.046875 73.179688 97.398438 74.445312 97.398438 74.445312 C 97.371094 74.375 96.398438 73.574219 95.46875 74.152344 C 94.28125 74.890625 94.835938 76.105469 95.492188 76.578125 C 97.039062 77.6875 99.207031 77.359375 99.207031 77.359375 C 99.207031 77.359375 100.4375 75.652344 100.140625 73.773438 C 100.011719 72.957031 99.164062 71.878906 98.007812 72.585938"/><path fill="#EE2331" d="M 170.277344 204.714844 C 169.53125 205.175781 169.804688 206.152344 169.804688 206.152344 C 169.78125 206.097656 169.03125 205.480469 168.3125 205.929688 C 167.390625 206.5 167.824219 207.441406 168.332031 207.804688 C 169.527344 208.664062 171.203125 208.410156 171.203125 208.410156 C 171.203125 208.410156 172.15625 207.089844 171.925781 205.640625 C 171.824219 205 171.167969 204.167969 170.277344 204.714844"/><path fill="#EE2331" d="M 131.828125 215.402344 C 131.082031 215.859375 131.355469 216.839844 131.355469 216.839844 C 131.335938 216.785156 130.585938 216.164062 129.859375 216.613281 C 128.945312 217.1875 129.375 218.121094 129.878906 218.488281 C 131.074219 219.347656 132.753906 219.089844 132.753906 219.089844 C 132.753906 219.089844 133.707031 217.773438 133.476562 216.320312 C 133.375 215.6875 132.71875 214.851562 131.828125 215.402344"/><path fill="#EE2331" d="M 167.445312 247.535156 C 166.835938 247.90625 167.058594 248.699219 167.058594 248.699219 C 167.042969 248.660156 166.429688 248.15625 165.84375 248.519531 C 165.09375 248.988281 165.445312 249.753906 165.855469 250.050781 C 166.832031 250.75 168.199219 250.539062 168.199219 250.539062 C 168.199219 250.539062 168.976562 249.464844 168.789062 248.285156 C 168.707031 247.761719 168.171875 247.085938 167.445312 247.535156"/><path fill="#EE2331" d="M 170.085938 209.824219 C 169.707031 210.054688 169.847656 210.550781 169.847656 210.550781 C 169.835938 210.523438 169.457031 210.210938 169.09375 210.4375 C 168.625 210.726562 168.84375 211.199219 169.101562 211.390625 C 169.707031 211.820312 170.554688 211.695312 170.554688 211.695312 C 170.554688 211.695312 171.039062 211.027344 170.921875 210.289062 C 170.871094 209.96875 170.539062 209.542969 170.085938 209.824219"/><path fill="#EE2331" d="M 178.101562 249.164062 C 177.679688 248.722656 177.054688 249.050781 177.054688 249.050781 C 177.085938 249.03125 177.398438 248.425781 176.984375 248 C 176.460938 247.460938 175.886719 247.894531 175.707031 248.292969 C 175.296875 249.234375 175.722656 250.339844 175.722656 250.339844 C 175.722656 250.339844 176.761719 250.796875 177.71875 250.421875 C 178.136719 250.261719 178.609375 249.691406 178.101562 249.164062"/><path fill="#EE2331" d="M 178.214844 232.308594 C 177.542969 231.605469 176.542969 232.132812 176.542969 232.132812 C 176.59375 232.09375 177.097656 231.136719 176.4375 230.457031 C 175.601562 229.59375 174.683594 230.285156 174.402344 230.921875 C 173.75 232.425781 174.425781 234.183594 174.425781 234.183594 C 174.425781 234.183594 176.078125 234.90625 177.605469 234.308594 C 178.273438 234.054688 179.023438 233.148438 178.214844 232.308594"/><path fill="#EE2331" d="M 179.023438 224.683594 C 178.378906 224.300781 177.746094 224.898438 177.746094 224.898438 C 177.773438 224.859375 177.949219 224.042969 177.316406 223.675781 C 176.515625 223.203125 175.980469 223.90625 175.902344 224.4375 C 175.722656 225.6875 176.589844 226.859375 176.589844 226.859375 C 176.589844 226.859375 177.972656 227.054688 178.980469 226.296875 C 179.425781 225.972656 179.796875 225.144531 179.023438 224.683594"/><path fill="#EE2331" d="M 166.503906 192.90625 C 165.539062 193.5 165.894531 194.765625 165.894531 194.765625 C 165.863281 194.695312 164.894531 193.894531 163.964844 194.472656 C 162.773438 195.210938 163.332031 196.425781 163.988281 196.898438 C 165.535156 198.011719 167.699219 197.679688 167.699219 197.679688 C 167.699219 197.679688 168.929688 195.972656 168.632812 194.097656 C 168.5 193.277344 167.652344 192.199219 166.503906 192.90625"/><path fill="#EE2331" d="M 182.515625 212.894531 C 181.828125 211.9375 180.542969 212.398438 180.542969 212.398438 C 180.613281 212.363281 181.371094 211.300781 180.703125 210.375 C 179.847656 209.199219 178.628906 209.867188 178.1875 210.578125 C 177.152344 212.261719 177.65625 214.484375 177.65625 214.484375 C 177.65625 214.484375 179.511719 215.636719 181.441406 215.1875 C 182.28125 214.992188 183.339844 214.03125 182.515625 212.894531"/><path fill="#EE2331" d="M 186.03125 197.003906 C 184.316406 196.972656 183.734375 198.867188 183.734375 198.867188 C 183.753906 198.761719 183.175781 196.949219 181.511719 196.929688 C 179.390625 196.90625 179.117188 198.902344 179.566406 200.039062 C 180.632812 202.710938 183.664062 204.054688 183.664062 204.054688 C 183.664062 204.054688 186.621094 202.882812 187.773438 200.253906 C 188.277344 199.097656 188.078125 197.03125 186.03125 197.003906"/><path fill="#EE2331" d="M 188.957031 191.421875 C 187.40625 190.171875 185.523438 191.496094 185.523438 191.496094 C 185.621094 191.40625 186.378906 189.335938 184.875 188.132812 C 182.949219 186.601562 181.273438 188.238281 180.875 189.59375 C 179.941406 192.796875 181.753906 196.1875 181.753906 196.1875 C 181.753906 196.1875 185.300781 197.226562 188.234375 195.636719 C 189.519531 194.9375 190.808594 192.902344 188.957031 191.421875"/><path fill="#EE2331" d="M 189.539062 180.03125 C 187.445312 180.488281 187.289062 182.957031 187.289062 182.957031 C 187.277344 182.820312 186.054688 180.785156 184.027344 181.234375 C 181.445312 181.816406 181.6875 184.324219 182.554688 185.570312 C 184.613281 188.511719 188.679688 189.28125 188.679688 189.28125 C 188.679688 189.28125 191.941406 187.011719 192.585938 183.484375 C 192.871094 181.933594 192.03125 179.484375 189.539062 180.03125"/><path fill="#EE2331" d="M 180.277344 216.34375 C 179.398438 216.328125 179.105469 217.296875 179.105469 217.296875 C 179.113281 217.242188 178.816406 216.316406 177.964844 216.304688 C 176.878906 216.292969 176.742188 217.3125 176.96875 217.894531 C 177.515625 219.261719 179.066406 219.949219 179.066406 219.949219 C 179.066406 219.949219 180.578125 219.351562 181.167969 218.003906 C 181.425781 217.414062 181.320312 216.359375 180.277344 216.34375"/><path fill="#EE2331" d="M 183.671875 204.597656 C 182.328125 204.578125 181.875 206.058594 181.875 206.058594 C 181.890625 205.972656 181.433594 204.5625 180.132812 204.542969 C 178.476562 204.523438 178.261719 206.085938 178.613281 206.972656 C 179.449219 209.0625 181.816406 210.109375 181.816406 210.109375 C 181.816406 210.109375 184.128906 209.199219 185.03125 207.136719 C 185.421875 206.234375 185.269531 204.621094 183.671875 204.597656"/><path fill="#EE2331" d="M 140.449219 193.261719 C 139.8125 193.652344 140.042969 194.484375 140.042969 194.484375 C 140.023438 194.445312 139.386719 193.914062 138.769531 194.296875 C 137.980469 194.785156 138.351562 195.582031 138.785156 195.898438 C 139.808594 196.632812 141.238281 196.414062 141.238281 196.414062 C 141.238281 196.414062 142.050781 195.289062 141.859375 194.046875 C 141.769531 193.503906 141.207031 192.789062 140.449219 193.261719"/><path fill="#EE2331" d="M 144.476562 172.8125 C 143.84375 173.203125 144.074219 174.039062 144.074219 174.039062 C 144.054688 173.992188 143.417969 173.46875 142.796875 173.851562 C 142.011719 174.335938 142.382812 175.136719 142.816406 175.449219 C 143.839844 176.183594 145.265625 175.964844 145.265625 175.964844 C 145.265625 175.964844 146.082031 174.839844 145.882812 173.597656 C 145.800781 173.054688 145.238281 172.34375 144.476562 172.8125"/><path fill="#EE2331" d="M 150.8125 186.96875 C 150.175781 187.359375 150.40625 188.195312 150.40625 188.195312 C 150.386719 188.152344 149.75 187.621094 149.128906 188.003906 C 148.34375 188.492188 148.714844 189.292969 149.148438 189.605469 C 150.171875 190.339844 151.601562 190.125 151.601562 190.125 C 151.601562 190.125 152.414062 189 152.21875 187.753906 C 152.132812 187.214844 151.570312 186.5 150.8125 186.96875"/><path fill="#EE2331" d="M 156.066406 200.226562 C 155.429688 200.617188 155.660156 201.453125 155.660156 201.453125 C 155.640625 201.40625 155.003906 200.878906 154.382812 201.261719 C 153.597656 201.75 153.96875 202.550781 154.402344 202.863281 C 155.421875 203.597656 156.855469 203.378906 156.855469 203.378906 C 156.855469 203.378906 157.667969 202.253906 157.472656 201.011719 C 157.386719 200.46875 156.824219 199.757812 156.066406 200.226562"/><path fill="#EE2331" d="M 149.609375 206.925781 C 148.972656 207.320312 149.207031 208.15625 149.207031 208.15625 C 149.1875 208.109375 148.546875 207.582031 147.929688 207.960938 C 147.144531 208.453125 147.511719 209.253906 147.945312 209.566406 C 148.96875 210.300781 150.398438 210.078125 150.398438 210.078125 C 150.398438 210.078125 151.214844 208.953125 151.019531 207.714844 C 150.933594 207.167969 150.371094 206.457031 149.609375 206.925781"/><path fill="#EE2331" d="M 156.375 211.640625 C 155.175781 212.378906 155.613281 213.949219 155.613281 213.949219 C 155.578125 213.863281 154.371094 212.871094 153.214844 213.589844 C 151.734375 214.507812 152.429688 216.015625 153.246094 216.601562 C 155.164062 217.980469 157.859375 217.574219 157.859375 217.574219 C 157.859375 217.574219 159.394531 215.453125 159.023438 213.121094 C 158.859375 212.097656 157.804688 210.753906 156.375 211.640625"/><path fill="#EE2331" d="M 162.804688 218.066406 C 161.398438 218.132812 161.023438 219.71875 161.023438 219.71875 C 161.035156 219.625 160.457031 218.175781 159.101562 218.242188 C 157.359375 218.328125 157.234375 219.984375 157.664062 220.890625 C 158.675781 223.027344 161.230469 223.972656 161.230469 223.972656 C 161.230469 223.972656 163.59375 222.863281 164.40625 220.640625 C 164.761719 219.667969 164.488281 217.980469 162.804688 218.066406"/><path fill="#EE2331" d="M 164.792969 224.472656 C 163.417969 224.539062 163.046875 226.089844 163.046875 226.089844 C 163.058594 226 162.496094 224.578125 161.164062 224.644531 C 159.464844 224.730469 159.34375 226.351562 159.761719 227.242188 C 160.75 229.332031 163.25 230.257812 163.25 230.257812 C 163.25 230.257812 165.570312 229.171875 166.359375 226.996094 C 166.707031 226.042969 166.4375 224.394531 164.792969 224.472656"/><path fill="#EE2331" d="M 103.671875 171.972656 C 99.351562 172.710938 98.78125 177.757812 98.78125 177.757812 C 98.773438 177.464844 96.460938 173.191406 92.273438 173.921875 C 86.929688 174.847656 87.171875 180.007812 88.839844 182.648438 C 92.777344 188.875 101.027344 190.832031 101.027344 190.832031 C 101.027344 190.832031 107.929688 186.511719 109.585938 179.332031 C 110.308594 176.199219 108.835938 171.097656 103.671875 171.972656"/><path fill="#EE2331" d="M 132.484375 201.808594 C 128.859375 201.636719 127.496094 205.613281 127.496094 205.613281 C 127.546875 205.371094 126.4375 201.507812 122.921875 201.347656 C 118.4375 201.148438 117.71875 205.359375 118.589844 207.796875 C 120.660156 213.53125 126.980469 216.578125 126.980469 216.578125 C 126.980469 216.578125 133.332031 214.3125 135.945312 208.808594 C 137.089844 206.402344 136.808594 202.015625 132.484375 201.808594"/><path fill="#EE2331" d="M 76.832031 153.75 C 74.589844 153.636719 73.746094 156.105469 73.746094 156.105469 C 73.773438 155.949219 73.085938 153.5625 70.910156 153.464844 C 68.136719 153.339844 67.6875 155.949219 68.234375 157.453125 C 69.511719 161.007812 73.429688 162.894531 73.429688 162.894531 C 73.429688 162.894531 77.355469 161.492188 78.980469 158.078125 C 79.6875 156.59375 79.511719 153.878906 76.832031 153.75"/><path fill="#EE2331" d="M 133.453125 177.296875 C 132.277344 177.238281 131.832031 178.53125 131.832031 178.53125 C 131.847656 178.453125 131.488281 177.199219 130.351562 177.148438 C 128.894531 177.085938 128.660156 178.449219 128.945312 179.238281 C 129.617188 181.097656 131.667969 182.089844 131.667969 182.089844 C 131.667969 182.089844 133.730469 181.355469 134.578125 179.570312 C 134.949219 178.785156 134.859375 177.363281 133.453125 177.296875"/><path fill="#EE2331" d="M 79.792969 159.933594 C 80.078125 163.707031 84.371094 164.59375 84.371094 164.59375 C 84.121094 164.574219 80.261719 166.222656 80.546875 169.871094 C 80.917969 174.535156 85.375 174.734375 87.78125 173.515625 C 93.453125 170.640625 95.792969 163.714844 95.792969 163.714844 C 95.792969 163.714844 92.628906 157.449219 86.59375 155.449219 C 83.949219 154.578125 79.453125 155.4375 79.792969 159.933594"/><path fill="#EE2331" d="M 108.328125 185.988281 C 108.148438 190.386719 112.988281 191.992188 112.988281 191.992188 C 112.703125 191.941406 108.019531 193.324219 107.851562 197.582031 C 107.660156 203.019531 112.78125 203.859375 115.726562 202.777344 C 122.675781 200.214844 126.320312 192.519531 126.320312 192.519531 C 126.320312 192.519531 123.507812 184.847656 116.796875 181.722656 C 113.859375 180.359375 108.535156 180.738281 108.328125 185.988281"/><path fill="#EE2331" d="M 136.9375 209.378906 C 135.84375 210.707031 136.96875 212.339844 136.96875 212.339844 C 136.894531 212.253906 135.113281 211.585938 134.0625 212.875 C 132.71875 214.511719 134.117188 215.976562 135.285156 216.328125 C 138.046875 217.164062 140.988281 215.632812 140.988281 215.632812 C 140.988281 215.632812 141.917969 212.585938 140.570312 210.042969 C 139.976562 208.929688 138.238281 207.804688 136.9375 209.378906"/><path fill="#EE2331" d="M 143.023438 216.605469 C 140.597656 216.882812 140.136719 219.675781 140.136719 219.675781 C 140.140625 219.507812 138.980469 217.066406 136.628906 217.347656 C 133.628906 217.707031 133.613281 220.582031 134.460938 222.097656 C 136.46875 225.675781 141 227.007812 141 227.007812 C 141 227.007812 144.960938 224.808594 146.09375 220.867188 C 146.589844 219.144531 145.914062 216.269531 143.023438 216.605469"/><path fill="#EE2331" d="M 147.003906 223.398438 C 145.976562 224.640625 147.035156 226.179688 147.035156 226.179688 C 146.964844 226.097656 145.292969 225.46875 144.300781 226.675781 C 143.042969 228.222656 144.355469 229.59375 145.453125 229.925781 C 148.046875 230.710938 150.808594 229.269531 150.808594 229.269531 C 150.808594 229.269531 151.683594 226.410156 150.417969 224.019531 C 149.863281 222.972656 148.226562 221.914062 147.003906 223.398438"/><path fill="#EE2331" d="M 152.351562 230.761719 C 151.898438 231.3125 152.363281 231.996094 152.363281 231.996094 C 152.335938 231.960938 151.59375 231.679688 151.152344 232.214844 C 150.597656 232.898438 151.175781 233.507812 151.664062 233.65625 C 152.8125 234.003906 154.039062 233.367188 154.039062 233.367188 C 154.039062 233.367188 154.425781 232.097656 153.867188 231.039062 C 153.621094 230.574219 152.894531 230.105469 152.351562 230.761719"/><path fill="#EE2331" d="M 127.152344 194.875 C 126.1875 196.042969 127.183594 197.488281 127.183594 197.488281 C 127.117188 197.414062 125.546875 196.824219 124.617188 197.957031 C 123.429688 199.40625 124.664062 200.695312 125.699219 201.007812 C 128.132812 201.746094 130.730469 200.390625 130.730469 200.390625 C 130.730469 200.390625 131.550781 197.710938 130.359375 195.460938 C 129.835938 194.476562 128.296875 193.480469 127.152344 194.875"/><g clip-path="url(#a)"><path fill="#351F17" d="M 200.867188 365.519531 C 200.867188 342.796875 199.515625 294.941406 200.558594 281.964844 C 205.398438 267.582031 213.480469 254.464844 222.226562 241.652344 C 231.46875 228.105469 240.699219 214.609375 250.511719 201.5 L 250.523438 201.503906 C 275.359375 174.347656 303.742188 136.355469 304.253906 100.535156 C 304.308594 96.890625 298.648438 96.894531 298.597656 100.535156 C 298.167969 130.671875 279.765625 155.925781 260.90625 179.417969 C 268.140625 153.535156 270.859375 127.03125 271 99.828125 C 271.019531 96.183594 265.363281 96.1875 265.34375 99.828125 C 265.175781 131.265625 261.492188 161.773438 251.210938 191.425781 C 247.695312 195.785156 244.265625 200.117188 241.054688 204.40625 C 231.097656 217.730469 220.097656 231.964844 210.863281 247.070312 C 210.902344 228.554688 211.335938 210.511719 212.847656 192.328125 C 239.175781 174.753906 245.4375 136.589844 249.675781 107.648438 C 250.195312 104.089844 244.742188 102.550781 244.214844 106.144531 C 240.425781 132.050781 235.285156 167.195312 213.519531 184.847656 C 214.253906 177.617188 215.15625 170.347656 216.3125 163.011719 C 220.894531 133.902344 221.050781 104.632812 215.003906 75.757812 C 214.257812 72.1875 208.804688 73.703125 209.546875 77.261719 C 216.1875 109 214.523438 140.398438 209.101562 172.175781 C 207.648438 180.722656 206.753906 189.265625 206.160156 197.808594 C 206.035156 198.097656 205.929688 198.410156 205.90625 198.78125 C 205.324219 210.1875 205.195312 221.640625 203.515625 232.964844 C 202.441406 240.242188 197.578125 250.949219 191.023438 242.644531 C 189.703125 232.054688 188.933594 221.6875 190.347656 210.789062 C 190.414062 210.253906 190.316406 209.820312 190.144531 209.433594 C 193.554688 200.535156 197.484375 191.738281 199.863281 182.945312 C 204.003906 167.6875 203.148438 151.507812 203.078125 135.875 C 203.011719 121.28125 204.949219 106.800781 200.144531 92.714844 C 198.980469 89.289062 193.511719 90.757812 194.691406 94.222656 C 200.578125 111.492188 197.417969 131.808594 197.492188 149.828125 C 197.585938 170.789062 192.597656 188.777344 185.085938 208.121094 C 179.023438 223.742188 177.011719 237.898438 178.921875 254.273438 C 177 246.523438 175.320312 238.71875 173.574219 230.933594 C 174.113281 230.613281 174.539062 230.0625 174.675781 229.207031 C 179.53125 199.152344 182.082031 168.71875 190.945312 139.457031 C 192.007812 135.949219 186.546875 134.472656 185.492188 137.953125 C 177.53125 164.21875 174.652344 191.433594 170.628906 218.480469 C 170.609375 218.382812 170.589844 218.285156 170.558594 218.179688 C 167.871094 207.554688 163.582031 197.671875 159.199219 187.765625 C 166.074219 158.4375 162.265625 128.195312 162.042969 98.417969 C 162.015625 94.777344 156.351562 94.765625 156.382812 98.417969 C 156.582031 125.089844 159.761719 152.234375 155.210938 178.652344 C 155.042969 178.265625 154.867188 177.886719 154.707031 177.492188 C 145.09375 154.960938 135.835938 129.386719 115.355469 114.351562 C 112.414062 112.191406 109.597656 117.097656 112.5 119.238281 C 131.894531 133.464844 140.773438 159.019531 149.820312 180.34375 C 155.347656 193.382812 161.289062 205.988281 165.105469 219.6875 C 167.953125 229.917969 170.011719 240.332031 172.351562 250.675781 C 165.15625 237.203125 157.542969 223.945312 148.847656 211.078125 C 133.097656 187.773438 115.367188 163.027344 89.890625 149.6875 C 86.660156 148 83.792969 152.886719 87.03125 154.574219 C 112.878906 168.101562 130.257812 193.660156 146.179688 217.222656 C 154.953125 230.203125 162.542969 243.652344 169.691406 257.347656 C 169.761719 257.726562 169.910156 258.113281 170.214844 258.511719 C 170.371094 258.71875 170.488281 258.964844 170.644531 259.183594 C 172.09375 261.964844 173.523438 264.75 174.941406 267.550781 C 177.988281 276.03125 178.679688 285.980469 179.023438 294.1875 C 179.730469 311.273438 178.566406 365.519531 178.566406 365.519531 L 200.867188 365.519531"/></g></svg>