<?xml version="1.0" encoding="UTF-8"?><svg xmlns="http://www.w3.org/2000/svg" xmlns:xlink="http://www.w3.org/1999/xlink" contentScriptType="text/ecmascript" width="375" zoomAndPan="magnify" contentStyleType="text/css" viewBox="0 0 375 374.999991" height="374.999991" preserveAspectRatio="xMidYMid meet" version="1.0"><path fill="rgb(100%, 100%, 100%)" d="M 555.804688 -70.964844 L 555.804688 384.457031 C 555.804688 414.355469 531.347656 438.796875 501.507812 438.796875 L -139.210938 438.796875 C -169.054688 438.796875 -193.511719 414.335938 -193.511719 384.457031 L -193.511719 -70.964844 Z M 315.605469 324.542969 C 354.964844 285.167969 353.917969 230.207031 348.585938 179.546875 C 343.691406 132.960938 334.070312 85.378906 339.792969 44.351562 C 340.296875 40.464844 339.117188 36.96875 336.449219 34.300781 C 333.78125 31.648438 330.289062 30.433594 326.40625 30.957031 C 285.457031 36.734375 237.859375 27.054688 191.308594 22.15625 C 140.6875 16.820312 85.78125 15.789062 46.421875 55.160156 C -6.222656 107.84375 7.027344 172.675781 39.789062 205.441406 C 68.820312 234.496094 96.011719 239.984375 127.238281 234.125 L 58.574219 302.820312 C 55.941406 305.472656 55.941406 309.746094 58.574219 312.382812 C 59.890625 313.699219 61.628906 314.359375 63.351562 314.359375 C 65.070312 314.359375 66.8125 313.699219 68.128906 312.382812 L 136.773438 243.683594 C 130.933594 274.933594 136.453125 302.179688 165.449219 331.179688 C 198.195312 363.96875 262.960938 377.242188 315.605469 324.542969 Z M 315.605469 324.542969 " fill-opacity="1" fill-rule="nonzero"/><path fill="rgb(93.328857%, 13.729858%, 19.219971%)" d="M 348.585938 179.546875 C 353.917969 230.207031 354.964844 285.167969 315.605469 324.542969 C 262.960938 377.242188 198.195312 363.96875 165.449219 331.179688 C 136.453125 302.179688 130.933594 274.933594 136.773438 243.683594 L 165.636719 214.800781 L 277.054688 238.5 C 277.527344 238.601562 278 238.652344 278.453125 238.652344 C 281.578125 238.652344 284.378906 236.472656 285.054688 233.296875 C 285.828125 229.648438 283.5 226.066406 279.855469 225.289062 L 177.011719 203.414062 L 216.796875 163.601562 L 290.640625 179.296875 C 291.113281 179.398438 291.585938 179.445312 292.042969 179.445312 C 295.164062 179.445312 297.964844 177.269531 298.640625 174.09375 C 299.417969 170.445312 297.089844 166.863281 293.441406 166.085938 L 228.1875 152.203125 L 300.683594 79.652344 C 303.316406 77.019531 303.316406 72.746094 300.683594 70.109375 C 298.035156 67.476562 293.761719 67.476562 291.128906 70.109375 L 249.117188 112.136719 L 240.882812 73.351562 C 240.105469 69.6875 236.527344 67.355469 232.863281 68.132812 C 229.21875 68.910156 226.890625 72.507812 227.664062 76.15625 L 237.742188 123.539062 L 209.941406 151.339844 C 209.925781 151.355469 209.910156 151.375 209.890625 151.390625 L 191.78125 169.515625 L 169.921875 66.613281 C 169.148438 62.964844 165.570312 60.632812 161.921875 61.410156 C 158.277344 62.1875 155.949219 65.769531 156.722656 69.417969 L 180.40625 180.917969 L 158.785156 202.554688 C 158.765625 202.570312 158.75 202.589844 158.734375 202.605469 L 127.238281 234.125 C 96.011719 239.984375 68.820312 234.496094 39.789062 205.441406 C 7.027344 172.671875 -6.222656 107.84375 46.421875 55.160156 C 85.78125 15.789062 140.6875 16.816406 191.308594 22.15625 C 237.859375 27.054688 285.457031 36.734375 326.40625 30.957031 C 330.289062 30.433594 333.78125 31.648438 336.449219 34.300781 C 339.117188 36.96875 340.296875 40.464844 339.792969 44.351562 C 334.070312 85.378906 343.691406 132.960938 348.585938 179.546875 Z M 348.585938 179.546875 " fill-opacity="1" fill-rule="nonzero"/><path fill="rgb(100%, 100%, 100%)" d="M 300.683594 70.109375 C 303.316406 72.746094 303.316406 77.019531 300.683594 79.652344 L 228.1875 152.203125 L 293.441406 166.085938 C 297.089844 166.863281 299.417969 170.445312 298.640625 174.09375 C 297.964844 177.269531 295.164062 179.449219 292.042969 179.449219 C 291.585938 179.449219 291.113281 179.398438 290.640625 179.296875 L 216.796875 163.601562 L 177.011719 203.414062 L 279.855469 225.289062 C 283.5 226.066406 285.828125 229.648438 285.054688 233.296875 C 284.378906 236.472656 281.578125 238.652344 278.453125 238.652344 C 278 238.652344 277.527344 238.601562 277.054688 238.5 L 165.636719 214.800781 L 136.773438 243.683594 C 137.515625 239.632812 138.476562 235.507812 139.59375 231.304688 C 135.390625 232.417969 131.289062 233.363281 127.238281 234.125 L 158.734375 202.605469 C 158.75 202.589844 158.765625 202.570312 158.78125 202.554688 L 180.40625 180.917969 L 156.722656 69.417969 C 155.949219 65.769531 158.277344 62.1875 161.921875 61.410156 C 165.570312 60.632812 169.148438 62.964844 169.921875 66.613281 L 191.78125 169.515625 L 209.890625 151.390625 C 209.910156 151.375 209.925781 151.355469 209.941406 151.339844 L 237.742188 123.539062 L 227.664062 76.15625 C 226.890625 72.507812 229.21875 68.910156 232.863281 68.132812 C 236.527344 67.355469 240.105469 69.6875 240.882812 73.351562 L 249.117188 112.136719 L 291.128906 70.109375 C 293.761719 67.476562 298.035156 67.476562 300.683594 70.109375 Z M 300.683594 70.109375 " fill-opacity="1" fill-rule="nonzero"/><path fill="rgb(100%, 100%, 100%)" d="M 139.59375 231.304688 C 138.476562 235.507812 137.515625 239.628906 136.773438 243.683594 L 68.128906 312.382812 C 66.8125 313.699219 65.070312 314.359375 63.351562 314.359375 C 61.628906 314.359375 59.890625 313.699219 58.574219 312.382812 C 55.941406 309.746094 55.941406 305.472656 58.574219 302.820312 L 127.238281 234.125 C 131.289062 233.363281 135.390625 232.417969 139.59375 231.304688 Z M 139.59375 231.304688 " fill-opacity="1" fill-rule="nonzero"/></svg>