<?xml version="1.0" encoding="UTF-8" standalone="no"?>
<svg
   width="375"
   viewBox="0 0 375 375"
   height="375"
   version="1.0"
   id="svg31"
   sodipodi:docname="logo-w.svg"
   inkscape:version="1.1.1 (3bf5ae0d25, 2021-09-20)"
   xmlns:inkscape="http://www.inkscape.org/namespaces/inkscape"
   xmlns:sodipodi="http://sodipodi.sourceforge.net/DTD/sodipodi-0.dtd"
   xmlns="http://www.w3.org/2000/svg"
   xmlns:svg="http://www.w3.org/2000/svg">
  <defs
     id="defs35" />
  <sodipodi:namedview
     id="namedview33"
     pagecolor="#ffffff"
     bordercolor="#666666"
     borderopacity="1.0"
     inkscape:pageshadow="2"
     inkscape:pageopacity="0.0"
     inkscape:pagecheckerboard="0"
     showgrid="false"
     inkscape:zoom="1.0786667"
     inkscape:cx="28.275648"
     inkscape:cy="284.14709"
     inkscape:window-width="1920"
     inkscape:window-height="1017"
     inkscape:window-x="-8"
     inkscape:window-y="-8"
     inkscape:window-maximized="1"
     inkscape:current-layer="svg31" />
  <path
     fill="#ee2331"
     d="m 354.14836,182.32809 c 5.33203,50.66016 6.3789,105.6211 -32.98047,144.9961 -52.64453,52.69922 -117.41016,39.42578 -150.15625,6.63672 -28.9961,-29 -34.51563,-56.2461 -28.67578,-87.4961 l 28.86328,-28.88281 111.41797,23.69922 c 0.47265,0.10156 0.94531,0.15234 1.39843,0.15234 3.125,0 5.92579,-2.17968 6.60157,-5.35547 0.77343,-3.64843 -1.55469,-7.23046 -5.19922,-8.00781 l -102.84375,-21.875 39.78515,-39.8125 73.84375,15.69531 c 0.47266,0.10157 0.94532,0.14844 1.40235,0.14844 3.12109,0 5.92187,-2.17578 6.59765,-5.35156 0.77735,-3.64844 -1.55078,-7.23047 -5.19921,-8.00781 l -65.25391,-13.88282 72.49609,-72.550782 c 2.63282,-2.63281 2.63282,-6.90625 0,-9.54297 -2.64843,-2.63281 -6.92187,-2.63281 -9.55468,0 l -42.01172,42.027352 -8.23438,-38.785162 c -0.77734,-3.66406 -4.35547,-5.99609 -8.01953,-5.21875 -3.64453,0.77734 -5.97266,4.375 -5.19922,8.02344 l 10.07813,47.382812 -27.80078,27.80078 c -0.0156,0.0156 -0.0312,0.0352 -0.0508,0.0508 l -18.10937,18.125 -21.85938,-102.902342 c -0.77343,-3.64844 -4.35156,-5.98047 -8,-5.20313 -3.64453,0.77735 -5.97265,4.35938 -5.19921,8.00782 l 23.68359,111.500002 -21.62109,21.63672 c -0.0195,0.0156 -0.0352,0.0352 -0.0508,0.0508 L 132.8007,236.90622 C 101.57414,242.76559 74.382728,237.27731 45.351478,208.22263 12.589769,175.45309 -0.66023154,110.62497 51.984298,57.941368 91.343668,18.570274 146.24992,19.597614 196.87101,24.937464 c 46.55078,4.89843 94.14844,14.578124 135.09766,8.800784 3.88281,-0.52344 7.375,0.6914 10.04297,3.34375 2.66797,2.66797 3.84765,6.16406 3.34375,10.05078 -5.72266,41.02734 3.89844,88.609382 8.79297,135.195312 z"
     id="path25"
     sodipodi:nodetypes="ccccccscccccscccccccccccscccccccccccccccc"
     style="fill:#ffffff" />
</svg>
