<?xml version="1.0" encoding="UTF-8" standalone="no"?>
<svg
   width="375"
   viewBox="0 0 375 375"
   height="375"
   version="1.0"
   id="svg31"
   sodipodi:docname="logo-t.svg"
   inkscape:version="1.1.1 (3bf5ae0d25, 2021-09-20)"
   xmlns:inkscape="http://www.inkscape.org/namespaces/inkscape"
   xmlns:sodipodi="http://sodipodi.sourceforge.net/DTD/sodipodi-0.dtd"
   xmlns="http://www.w3.org/2000/svg"
   xmlns:svg="http://www.w3.org/2000/svg">
  <defs
     id="defs35" />
  <sodipodi:namedview
     id="namedview33"
     pagecolor="#ffffff"
     bordercolor="#666666"
     borderopacity="1.0"
     inkscape:pageshadow="2"
     inkscape:pageopacity="0.0"
     inkscape:pagecheckerboard="0"
     showgrid="false"
     inkscape:zoom="1.0786667"
     inkscape:cx="28.275649"
     inkscape:cy="284.1471"
     inkscape:window-width="1920"
     inkscape:window-height="1017"
     inkscape:window-x="-8"
     inkscape:window-y="-8"
     inkscape:window-maximized="1"
     inkscape:current-layer="svg31" />
  <path
     fill="#ffffff"
     d="m 315.60547,324.54297 c 39.35937,-39.375 38.3125,-94.33594 32.98047,-144.9961 -4.89453,-46.58593 -14.51563,-94.167964 -8.79297,-135.195308 0.5039,-3.886718 -0.67578,-7.382812 -3.34375,-10.050781 -2.66797,-2.652343 -6.16016,-3.867187 -10.04297,-3.34375 C 285.45703,36.734375 237.85937,27.054688 191.30859,22.15625 140.6875,16.820312 85.78125,15.789062 46.421875,55.160156 -6.222656,107.84375 7.027344,172.67578 39.789062,205.44141 c 29.03125,29.05468 56.222657,34.54296 87.449218,28.68359 l -68.664061,68.69531 c -2.632813,2.65235 -2.632813,6.92578 0,9.5625 1.316406,1.31641 3.054687,1.97656 4.777343,1.97656 1.71875,0 3.460938,-0.66015 4.777344,-1.97656 l 68.644534,-68.69922 c -5.83985,31.25 -0.32032,58.4961 28.67578,87.4961 32.74609,32.78906 97.51172,46.0625 150.15625,-6.63672 z"
     id="path23"
     sodipodi:nodetypes="cccccccccccscccc" />
  <path
     fill="#ee2331"
     d="m 348.58594,179.54687 c 5.33203,50.66016 6.3789,105.6211 -32.98047,144.9961 -52.64453,52.69922 -117.41016,39.42578 -150.15625,6.63672 -28.9961,-29 -34.51563,-56.2461 -28.67578,-87.4961 L 165.63672,214.80078 277.05469,238.5 c 0.47265,0.10156 0.94531,0.15234 1.39843,0.15234 3.125,0 5.92579,-2.17968 6.60157,-5.35547 0.77343,-3.64843 -1.55469,-7.23046 -5.19922,-8.00781 l -102.84375,-21.875 39.78515,-39.8125 73.84375,15.69531 c 0.47266,0.10157 0.94532,0.14844 1.40235,0.14844 3.12109,0 5.92187,-2.17578 6.59765,-5.35156 0.77735,-3.64844 -1.55078,-7.23047 -5.19921,-8.00781 L 228.1875,152.20312 300.68359,79.652344 c 2.63282,-2.632813 2.63282,-6.90625 0,-9.542969 -2.64843,-2.632813 -6.92187,-2.632813 -9.55468,0 l -42.01172,42.027345 -8.23438,-38.785158 c -0.77734,-3.664062 -4.35547,-5.996093 -8.01953,-5.21875 -3.64453,0.777344 -5.97266,4.375 -5.19922,8.023438 l 10.07813,47.38281 -27.80078,27.80078 c -0.0156,0.0156 -0.0312,0.0352 -0.0508,0.0508 l -18.10937,18.125 -21.85938,-102.902339 c -0.77343,-3.648437 -4.35156,-5.980469 -8,-5.203125 -3.64453,0.777344 -5.97265,4.359375 -5.19921,8.007813 l 23.68359,111.500001 -21.62109,21.63672 c -0.0195,0.0156 -0.0352,0.0352 -0.0508,0.0508 L 127.23828,234.125 C 96.011719,239.98437 68.820312,234.49609 39.789062,205.44141 7.027344,172.67187 -6.222656,107.84375 46.421875,55.160156 85.78125,15.789062 140.6875,16.816406 191.30859,22.15625 c 46.55078,4.898438 94.14844,14.578125 135.09766,8.800781 3.88281,-0.523437 7.375,0.691407 10.04297,3.34375 2.66797,2.667969 3.84765,6.164063 3.34375,10.050781 -5.72266,41.027344 3.89844,88.609378 8.79297,135.195308 z"
     id="path25"
     sodipodi:nodetypes="ccccccscccccscccccccccccscccccccccccccccc" />
  <path
     fill="#ffffff"
     d="m 300.68359,70.109375 c 2.63282,2.636719 2.63282,6.910156 0,9.542969 l -72.49609,72.550776 65.25391,13.88282 c 3.64843,0.77734 5.97656,4.35937 5.19921,8.00781 -0.67578,3.17578 -3.47656,5.35547 -6.59765,5.35547 -0.45703,0 -0.92969,-0.0508 -1.40235,-0.15235 l -73.84375,-15.69531 -39.78515,39.8125 102.84375,21.875 c 3.64453,0.77735 5.97265,4.35938 5.19922,8.00781 -0.67578,3.17579 -3.47657,5.35547 -6.60157,5.35547 -0.45312,0 -0.92578,-0.0508 -1.39843,-0.15234 l -111.41797,-23.69922 -28.86328,28.88281 c 0.74218,-4.05078 1.70312,-8.17578 2.82031,-12.3789 -4.20313,1.11328 -8.30469,2.05859 -12.35547,2.82031 l 31.49609,-31.51953 c 0.0156,-0.0156 0.0312,-0.0352 0.0469,-0.0508 l 21.625,-21.63672 -23.68359,-111.500001 c -0.77344,-3.648438 1.55468,-7.230469 5.19921,-8.007813 3.64844,-0.777344 7.22657,1.554688 8,5.203125 l 21.85938,102.902339 18.10937,-18.125 c 0.0195,-0.0156 0.0352,-0.0352 0.0508,-0.0508 l 27.80078,-27.80078 -10.07813,-47.38281 c -0.77344,-3.648438 1.55469,-7.246094 5.19922,-8.023438 3.66406,-0.777343 7.24219,1.554688 8.01953,5.21875 l 8.23438,38.785158 42.01172,-42.027345 c 2.63281,-2.632813 6.90625,-2.632813 9.55468,0 z"
     id="path27"
     sodipodi:nodetypes="cccccscccccscccccccccccccsccccccc" />
  <path
     fill="#ffffff"
     d="m 139.59375,231.30469 c -1.11719,4.20312 -2.07813,8.32422 -2.82031,12.3789 l -68.644534,68.69922 c -1.316406,1.31641 -3.058594,1.97656 -4.777344,1.97656 -1.722656,0 -3.460937,-0.66015 -4.777343,-1.97656 -2.632813,-2.63672 -2.632813,-6.91015 0,-9.5625 L 127.23828,234.125 c 4.05078,-0.76172 8.15234,-1.70703 12.35547,-2.82031 z"
     id="path29"
     sodipodi:nodetypes="cccscccc" />
</svg>
