<svg xmlns="http://www.w3.org/2000/svg" xmlns:xlink="http://www.w3.org/1999/xlink" zoomAndPan="magnify" preserveAspectRatio="xMidYMid meet" version="1.0" viewBox="31.45 256.16 740.68 921.63"><path fill="#ffffff" d="M 745.773438 850.535156 C 745.742188 850.507812 745.707031 850.480469 745.671875 850.449219 C 740.199219 845.898438 732.019531 846.808594 727.460938 852.265625 L 689.789062 897.34375 C 685.058594 903.019531 676.554688 904.316406 670.742188 899.742188 C 664.738281 895.027344 663.851562 886.308594 668.722656 880.484375 L 712.707031 827.84375 C 739.898438 794.21875 736.410156 745.753906 704.644531 719.210938 C 704.609375 719.183594 704.570312 719.15625 704.535156 719.125 C 699.085938 714.582031 690.933594 715.488281 686.382812 720.933594 L 641.15625 775.066406 C 636.417969 780.730469 627.921875 782.027344 622.113281 777.460938 C 616.101562 772.738281 615.222656 764.019531 620.089844 758.195312 L 670.800781 697.488281 C 698.925781 663.828125 695.6875 614.621094 663.578125 587.792969 C 663.550781 587.765625 663.515625 587.742188 663.480469 587.707031 C 658.042969 583.195312 649.921875 584.085938 645.382812 589.515625 L 565.820312 684.746094 C 561.082031 690.410156 552.585938 691.699219 546.773438 687.136719 C 540.761719 682.417969 539.882812 673.699219 544.75 667.875 L 752.800781 418.878906 C 777.707031 389.074219 774.164062 343.75 743.894531 319.421875 C 714.558594 295.847656 671.621094 300.015625 647.386719 329.019531 L 310.957031 731.667969 C 306.21875 737.34375 297.722656 738.632812 291.910156 734.066406 C 285.90625 729.34375 285.019531 720.625 289.886719 714.796875 L 366.558594 623.039062 C 381.582031 605.054688 368.328125 577.527344 344.90625 578.433594 C 344.695312 578.449219 344.496094 578.457031 344.285156 578.460938 C 301.308594 580.371094 258.761719 606.183594 217.824219 655.175781 C 152.664062 733.160156 147.886719 844.136719 147.585938 854.238281 C 147.160156 859.71875 144.820312 896.726562 155.390625 944.542969 C 170.316406 1012.066406 204.203125 1069.472656 253.382812 1110.558594 C 318.421875 1164.90625 389.503906 1186.460938 464.65625 1174.648438 C 518.960938 1166.109375 571.679688 1138.941406 613.089844 1098.152344 L 751.8125 961.515625 C 752.203125 961.132812 752.578125 960.730469 752.929688 960.3125 C 781.117188 926.644531 777.898438 877.378906 745.773438 850.535156 " fill-opacity="1" fill-rule="nonzero"/><path fill="#ffffff" d="M 448.828125 350.203125 L 408.6875 371.535156 C 400.007812 376.144531 396.71875 386.914062 401.328125 395.585938 C 405.957031 404.347656 416.878906 407.507812 425.382812 402.949219 L 497.4375 364.660156 C 506.796875 361.066406 511.175781 348.601562 506.15625 339.804688 L 466.304688 265.542969 C 461.660156 256.886719 450.878906 253.632812 442.21875 258.277344 C 433.5625 262.921875 430.316406 273.707031 434.960938 282.363281 L 451.578125 313.328125 C 339.496094 273.246094 240.832031 277.097656 174.679688 288.75 C 92.949219 303.132812 42.503906 331.675781 40.394531 332.878906 C 31.875 337.765625 28.921875 348.640625 33.8125 357.15625 C 38.695312 365.675781 49.558594 368.628906 58.085938 363.746094 C 58.546875 363.480469 105.175781 337.105469 180.851562 323.785156 C 244.394531 312.589844 340.144531 309.101562 448.828125 350.203125 " fill-opacity="1" fill-rule="nonzero"/></svg>