<svg xmlns="http://www.w3.org/2000/svg" xmlns:xlink="http://www.w3.org/1999/xlink" zoomAndPan="magnify" preserveAspectRatio="xMidYMid meet" version="1.0" viewBox="19.19 336.52 772.78 767.75"><defs><clipPath id="id1"><path d="M 142.011719 449.800781 L 791.976562 449.800781 L 791.976562 1104.257812 L 142.011719 1104.257812 Z M 142.011719 449.800781 " clip-rule="nonzero"/></clipPath></defs><g clip-path="url(#id1)"><path fill="#ffffff" d="M 159.414062 811.722656 C 159.445312 811.746094 159.464844 811.773438 159.496094 811.796875 C 159.496094 811.796875 159.496094 811.796875 159.5 811.796875 L 336.070312 954.671875 C 336.09375 954.695312 336.117188 954.722656 336.140625 954.742188 C 336.296875 954.871094 336.425781 955.027344 336.570312 955.167969 C 336.769531 955.367188 336.980469 955.558594 337.152344 955.773438 C 337.164062 955.792969 337.183594 955.808594 337.199219 955.828125 L 384.863281 1017.003906 C 461.789062 1115.734375 604.960938 1133.332031 704.027344 1056.222656 C 738.945312 1029.046875 765.011719 992.707031 779.414062 951.132812 C 787.515625 927.734375 791.746094 903.308594 791.976562 878.539062 C 791.628906 754.515625 730.328125 596.457031 729.714844 594.878906 C 729.585938 594.550781 729.480469 594.214844 729.398438 593.875 C 726.90625 582.9375 720.292969 573.632812 710.785156 567.671875 C 701.246094 561.695312 689.9375 559.796875 678.949219 562.332031 C 656.28125 567.546875 642.03125 590.203125 647.195312 612.828125 L 679.710938 755.28125 C 679.742188 755.433594 679.742188 755.589844 679.765625 755.742188 C 679.808594 756.007812 679.855469 756.273438 679.867188 756.539062 C 679.875 756.765625 679.859375 756.992188 679.847656 757.214844 C 679.832031 757.441406 679.828125 757.667969 679.796875 757.894531 C 679.761719 758.128906 679.699219 758.351562 679.636719 758.582031 C 679.585938 758.796875 679.539062 759.007812 679.460938 759.21875 C 679.386719 759.429688 679.289062 759.636719 679.1875 759.84375 C 679.09375 760.050781 679.003906 760.253906 678.882812 760.449219 C 678.765625 760.65625 678.625 760.839844 678.480469 761.03125 C 678.351562 761.203125 678.230469 761.382812 678.082031 761.546875 C 677.902344 761.75 677.699219 761.925781 677.496094 762.105469 C 677.382812 762.210938 677.285156 762.328125 677.164062 762.425781 C 677.140625 762.445312 677.109375 762.449219 677.085938 762.46875 C 676.546875 762.878906 675.929688 763.199219 675.265625 763.445312 C 675.128906 763.496094 674.996094 763.542969 674.855469 763.582031 C 674.699219 763.632812 674.554688 763.703125 674.394531 763.738281 C 673.890625 763.851562 673.390625 763.902344 672.890625 763.90625 C 672.867188 763.90625 672.84375 763.917969 672.820312 763.917969 C 672.648438 763.917969 672.480469 763.871094 672.304688 763.859375 C 672.015625 763.835938 671.726562 763.820312 671.449219 763.765625 C 671.21875 763.71875 670.996094 763.644531 670.773438 763.574219 C 670.53125 763.5 670.289062 763.425781 670.0625 763.328125 C 669.828125 763.230469 669.617188 763.117188 669.398438 762.996094 C 669.179688 762.875 668.972656 762.742188 668.765625 762.601562 C 668.566406 762.460938 668.378906 762.320312 668.1875 762.15625 C 667.96875 761.96875 667.777344 761.757812 667.578125 761.539062 C 667.472656 761.417969 667.339844 761.324219 667.242188 761.195312 L 606.859375 683.699219 C 606.699219 683.492188 606.582031 683.265625 606.445312 683.046875 C 606.402344 682.976562 606.34375 682.925781 606.300781 682.855469 L 486.089844 472.445312 C 486.070312 472.414062 486.0625 472.375 486.042969 472.339844 C 486.023438 472.308594 486 472.28125 485.980469 472.246094 C 480.726562 462.324219 471.910156 455.046875 461.160156 451.757812 C 450.398438 448.46875 438.988281 449.558594 429.027344 454.84375 C 408.484375 465.730469 400.582031 491.242188 411.394531 511.726562 L 540.8125 736.34375 C 540.851562 736.40625 540.867188 736.476562 540.902344 736.539062 C 541.023438 736.765625 541.121094 736.996094 541.214844 737.234375 C 541.296875 737.4375 541.382812 737.636719 541.441406 737.84375 C 541.515625 738.074219 541.554688 738.300781 541.597656 738.53125 C 541.640625 738.753906 541.6875 738.976562 541.707031 739.203125 C 541.730469 739.421875 541.726562 739.644531 541.726562 739.863281 C 541.726562 740.097656 541.730469 740.328125 541.707031 740.558594 C 541.683594 740.78125 541.636719 740.996094 541.59375 741.214844 C 541.550781 741.4375 541.515625 741.660156 541.445312 741.875 C 541.386719 742.097656 541.296875 742.308594 541.207031 742.519531 C 541.121094 742.726562 541.042969 742.929688 540.941406 743.132812 C 540.835938 743.332031 540.707031 743.519531 540.585938 743.710938 C 540.457031 743.90625 540.328125 744.101562 540.179688 744.285156 C 540.042969 744.457031 539.886719 744.613281 539.730469 744.769531 C 539.558594 744.949219 539.382812 745.128906 539.191406 745.289062 C 539.132812 745.335938 539.085938 745.398438 539.03125 745.441406 C 538.960938 745.492188 538.886719 745.507812 538.820312 745.554688 C 538.617188 745.703125 538.4375 745.863281 538.214844 745.992188 C 537.9375 746.152344 537.640625 746.226562 537.351562 746.347656 C 537.148438 746.429688 536.953125 746.535156 536.738281 746.597656 C 536.066406 746.804688 535.378906 746.9375 534.695312 746.9375 C 534.652344 746.9375 534.621094 746.921875 534.582031 746.921875 C 534.050781 746.914062 533.519531 746.84375 533.003906 746.71875 C 532.816406 746.667969 532.648438 746.589844 532.464844 746.53125 C 532.101562 746.410156 531.75 746.277344 531.410156 746.101562 C 531.210938 745.996094 531.027344 745.867188 530.835938 745.742188 C 530.546875 745.550781 530.261719 745.347656 529.996094 745.109375 C 529.8125 744.945312 529.648438 744.765625 529.480469 744.582031 C 529.359375 744.453125 529.21875 744.347656 529.113281 744.207031 L 340.320312 501.90625 C 326.070312 483.613281 299.535156 480.359375 281.175781 494.648438 C 262.824219 508.933594 259.476562 535.425781 273.707031 553.71875 L 462.511719 796.042969 C 462.871094 796.503906 463.144531 797 463.371094 797.511719 C 463.414062 797.605469 463.441406 797.699219 463.476562 797.792969 C 463.78125 798.558594 463.953125 799.351562 463.980469 800.152344 C 463.984375 800.25 463.972656 800.335938 463.972656 800.429688 C 463.964844 801.242188 463.832031 802.046875 463.554688 802.808594 C 463.519531 802.902344 463.476562 802.984375 463.4375 803.074219 C 463.121094 803.84375 462.675781 804.554688 462.089844 805.183594 C 462.058594 805.214844 462.050781 805.257812 462.019531 805.292969 C 461.90625 805.410156 461.765625 805.496094 461.644531 805.605469 C 461.515625 805.722656 461.414062 805.851562 461.277344 805.960938 C 461.234375 805.992188 461.183594 806 461.140625 806.03125 C 460.578125 806.453125 459.972656 806.773438 459.335938 807.003906 C 459.210938 807.050781 459.085938 807.078125 458.957031 807.117188 C 458.300781 807.316406 457.628906 807.445312 456.945312 807.449219 C 456.945312 807.449219 456.941406 807.449219 456.9375 807.449219 C 456.9375 807.449219 456.9375 807.449219 456.933594 807.449219 C 456.933594 807.449219 456.929688 807.449219 456.925781 807.449219 C 456.128906 807.445312 455.351562 807.269531 454.59375 807.003906 C 454.460938 806.957031 454.328125 806.921875 454.191406 806.867188 C 453.46875 806.5625 452.804688 806.128906 452.203125 805.582031 C 452.148438 805.53125 452.078125 805.519531 452.023438 805.464844 L 254.109375 614.503906 C 236.867188 599.691406 210.730469 601.277344 195.359375 618.269531 C 187.796875 626.621094 183.9375 637.414062 184.492188 648.644531 C 185.050781 659.871094 189.949219 670.195312 198.289062 677.71875 C 198.316406 677.746094 198.324219 677.78125 198.351562 677.804688 C 198.382812 677.832031 198.417969 677.839844 198.445312 677.863281 L 384.085938 855.792969 C 384.121094 855.828125 384.132812 855.878906 384.167969 855.914062 C 384.773438 856.519531 385.242188 857.207031 385.585938 857.953125 C 385.628906 858.046875 385.675781 858.136719 385.714844 858.234375 C 386.019531 858.980469 386.183594 859.769531 386.222656 860.570312 C 386.226562 860.675781 386.238281 860.773438 386.238281 860.878906 C 386.242188 861.671875 386.101562 862.457031 385.832031 863.222656 C 385.796875 863.328125 385.765625 863.429688 385.722656 863.535156 C 385.503906 864.078125 385.234375 864.613281 384.871094 865.105469 C 384.738281 865.28125 384.574219 865.40625 384.433594 865.566406 C 384.371094 865.632812 384.355469 865.722656 384.292969 865.785156 C 384.1875 865.894531 384.0625 865.972656 383.953125 866.074219 C 383.785156 866.226562 383.617188 866.375 383.441406 866.507812 C 383.191406 866.695312 382.929688 866.863281 382.65625 867.011719 C 382.484375 867.113281 382.3125 867.214844 382.128906 867.300781 C 381.8125 867.445312 381.484375 867.550781 381.152344 867.648438 C 381 867.691406 380.851562 867.753906 380.695312 867.785156 C 380.203125 867.894531 379.699219 867.960938 379.195312 867.960938 C 379.191406 867.960938 379.191406 867.960938 379.191406 867.960938 C 378.378906 867.960938 377.578125 867.789062 376.796875 867.507812 C 376.546875 867.414062 376.328125 867.257812 376.089844 867.140625 C 375.714844 866.957031 375.324219 866.824219 374.980469 866.570312 L 209.164062 743.597656 C 190.394531 729.96875 163.988281 734.152344 150.273438 752.925781 C 143.617188 762.039062 140.910156 773.1875 142.65625 784.308594 C 144.394531 795.390625 150.34375 805.128906 159.414062 811.722656 " fill-opacity="1" fill-rule="nonzero"/></g><path fill="#ffffff" d="M 190.59375 949.4375 C 191.65625 950.007812 192.796875 950.277344 193.921875 950.277344 C 196.445312 950.277344 198.886719 948.921875 200.164062 946.542969 C 202.003906 943.101562 200.707031 938.820312 197.261719 936.980469 C 151.214844 912.355469 113.753906 872.753906 91.777344 825.464844 C 90.132812 821.925781 85.929688 820.378906 82.386719 822.035156 C 78.847656 823.679688 77.308594 827.878906 78.953125 831.414062 C 102.214844 881.46875 141.863281 923.378906 190.59375 949.4375 " fill-opacity="1" fill-rule="nonzero"/><path fill="#ffffff" d="M 178.804688 1009.875 C 179.867188 1010.441406 181.007812 1010.710938 182.132812 1010.710938 C 184.65625 1010.710938 187.097656 1009.355469 188.371094 1006.976562 C 190.210938 1003.535156 188.914062 999.257812 185.472656 997.414062 C 118.773438 961.746094 64.507812 904.382812 32.671875 835.886719 C 31.03125 832.34375 26.828125 830.808594 23.285156 832.453125 C 19.742188 834.097656 18.207031 838.300781 19.851562 841.839844 C 52.96875 913.09375 109.421875 972.769531 178.804688 1009.875 " fill-opacity="1" fill-rule="nonzero"/><path fill="#ffffff" d="M 502.488281 410.246094 C 548.535156 434.871094 585.996094 474.472656 607.972656 521.761719 C 609.167969 524.335938 611.722656 525.855469 614.390625 525.855469 C 615.386719 525.855469 616.398438 525.640625 617.359375 525.195312 C 620.902344 523.546875 622.4375 519.347656 620.796875 515.8125 C 597.535156 465.761719 557.886719 423.847656 509.152344 397.785156 C 505.71875 395.949219 501.433594 397.25 499.585938 400.6875 C 497.746094 404.121094 499.042969 408.402344 502.488281 410.246094 " fill-opacity="1" fill-rule="nonzero"/><path fill="#ffffff" d="M 514.277344 349.8125 C 580.976562 385.476562 635.242188 442.847656 667.078125 511.34375 C 668.273438 513.914062 670.828125 515.433594 673.492188 515.433594 C 674.488281 515.433594 675.503906 515.222656 676.464844 514.773438 C 680.007812 513.128906 681.542969 508.929688 679.898438 505.390625 C 646.785156 434.132812 590.332031 374.457031 520.945312 337.355469 C 517.511719 335.511719 513.226562 336.808594 511.378906 340.25 C 509.539062 343.6875 510.835938 347.972656 514.277344 349.8125 " fill-opacity="1" fill-rule="nonzero"/></svg>