<svg xmlns="http://www.w3.org/2000/svg" xmlns:xlink="http://www.w3.org/1999/xlink" width="375" viewBox="0 0 375 375" height="375" version="1.0"><defs><clipPath id="e"><path d="M 161 127 L 209 127 L 209 173 L 161 173 Z M 161 127"/></clipPath><clipPath id="f"><path d="M 159.410156 130.511719 L 204.84375 125.136719 L 210.21875 170.570312 L 164.785156 175.945312 Z M 159.410156 130.511719"/></clipPath><clipPath id="g"><path d="M 159.410156 130.511719 L 204.84375 125.136719 L 210.21875 170.570312 L 164.785156 175.945312 Z M 159.410156 130.511719"/></clipPath><clipPath id="h"><path d="M 159.410156 130.511719 L 204.84375 125.136719 L 210.21875 170.570312 L 164.785156 175.945312 Z M 159.410156 130.511719"/></clipPath><clipPath id="i"><path d="M 159.410156 130.511719 L 204.84375 125.136719 L 210.21875 170.570312 L 164.785156 175.945312 Z M 159.410156 130.511719"/></clipPath><g id="a"><path d="M 51.5625 0 L 62.734375 0 L 34.210938 -65.773438 L 30.683594 -65.773438 L 2.15625 0 L 13.234375 0 L 17.839844 -10.78125 L 46.953125 -10.78125 Z M 43.230469 -19.703125 L 21.566406 -19.703125 L 32.445312 -46.464844 Z M 43.230469 -19.703125"/></g><g id="b"><path d="M 6.960938 -20.191406 C 6.960938 -7.253906 15.976562 1.078125 28.035156 1.078125 C 39.796875 1.078125 48.914062 -7.253906 48.914062 -20.191406 L 48.914062 -48.128906 L 38.621094 -48.128906 L 38.621094 -19.410156 C 38.621094 -12.742188 34.015625 -8.429688 28.035156 -8.429688 C 21.761719 -8.429688 17.15625 -12.742188 17.15625 -19.410156 L 17.15625 -48.128906 L 6.960938 -48.128906 Z M 6.960938 -20.191406"/></g><g id="c"><path d="M 36.074219 -8.722656 C 33.230469 -8.429688 31.171875 -8.234375 29.703125 -8.234375 C 23.429688 -8.234375 20.191406 -10.390625 20.191406 -16.566406 L 20.191406 -39.210938 L 34.503906 -39.210938 L 34.503906 -48.128906 L 20.191406 -48.128906 L 20.191406 -60.777344 L 9.800781 -60.777344 L 9.800781 -48.128906 L 1.960938 -48.128906 L 1.960938 -39.210938 L 9.800781 -39.210938 L 9.800781 -15.683594 C 9.800781 -4.410156 16.46875 1.078125 27.546875 1.078125 C 29.996094 1.078125 32.839844 0.6875 36.074219 0 Z M 36.074219 -8.722656"/></g><g id="d"><path d="M 79.695312 -30.09375 C 79.695312 -41.5625 72.929688 -49.207031 61.855469 -49.207031 C 55.089844 -49.207031 49.109375 -46.269531 45.582031 -41.660156 C 42.738281 -46.367188 37.640625 -49.207031 30.976562 -49.207031 C 25.191406 -49.207031 20.488281 -47.148438 17.054688 -43.621094 L 17.054688 -48.128906 L 7.449219 -48.128906 L 7.449219 0 L 17.742188 0 L 17.742188 -28.625 C 17.742188 -35.289062 22.054688 -39.796875 28.328125 -39.796875 C 34.503906 -39.796875 38.425781 -35.289062 38.425781 -28.625 L 38.425781 0 L 48.71875 0 L 48.71875 -29.113281 C 48.71875 -35.289062 53.03125 -39.796875 59.304688 -39.796875 C 65.480469 -39.796875 69.304688 -35.386719 69.304688 -28.625 L 69.304688 0 L 79.695312 0 Z M 79.695312 -30.09375"/></g></defs><g fill="#37393F"><use x="43.467" y="221.377" xmlns:xlink="http://www.w3.org/1999/xlink" xlink:href="#a" xlink:type="simple" xlink:actuate="onLoad" xlink:show="embed"/></g><g fill="#37393F"><use x="104.824" y="221.377" xmlns:xlink="http://www.w3.org/1999/xlink" xlink:href="#b" xlink:type="simple" xlink:actuate="onLoad" xlink:show="embed"/></g><g fill="#37393F"><use x="157.164" y="221.377" xmlns:xlink="http://www.w3.org/1999/xlink" xlink:href="#c" xlink:type="simple" xlink:actuate="onLoad" xlink:show="embed"/></g><g fill="#37393F"><use x="192.645" y="221.377" xmlns:xlink="http://www.w3.org/1999/xlink" xlink:href="#b" xlink:type="simple" xlink:actuate="onLoad" xlink:show="embed"/></g><g fill="#37393F"><use x="244.985" y="221.377" xmlns:xlink="http://www.w3.org/1999/xlink" xlink:href="#d" xlink:type="simple" xlink:actuate="onLoad" xlink:show="embed"/></g><g clip-path="url(#e)"><g clip-path="url(#f)"><g clip-path="url(#g)"><g clip-path="url(#h)"><g clip-path="url(#i)"><path fill="#F1202B" d="M 207.011719 146.527344 C 208.519531 153.195312 209.527344 160.511719 204.894531 166.382812 C 198.691406 174.242188 189.835938 173.492188 184.945312 169.636719 C 180.617188 166.230469 179.449219 162.683594 179.738281 158.421875 L 183.136719 154.117188 L 198.386719 155.515625 C 198.453125 155.523438 198.519531 155.523438 198.578125 155.515625 C 198.996094 155.464844 199.332031 155.132812 199.375 154.699219 C 199.421875 154.199219 199.054688 153.757812 198.554688 153.710938 L 184.472656 152.417969 L 189.160156 146.480469 L 199.269531 147.410156 C 199.332031 147.414062 199.394531 147.410156 199.457031 147.402344 C 199.875 147.355469 200.214844 147.019531 200.253906 146.585938 C 200.300781 146.089844 199.933594 145.648438 199.433594 145.601562 L 190.5 144.78125 L 199.039062 133.960938 C 199.347656 133.566406 199.28125 133 198.886719 132.6875 C 198.492188 132.378906 197.921875 132.445312 197.613281 132.839844 L 192.664062 139.105469 L 190.953125 134.0625 C 190.789062 133.589844 190.277344 133.335938 189.800781 133.496094 C 189.324219 133.65625 189.070312 134.171875 189.230469 134.648438 L 191.324219 140.804688 L 188.050781 144.953125 C 188.046875 144.957031 188.050781 144.957031 188.046875 144.960938 L 185.914062 147.664062 L 181.371094 134.285156 C 181.210938 133.8125 180.695312 133.558594 180.21875 133.71875 C 179.746094 133.878906 179.492188 134.394531 179.652344 134.871094 L 184.574219 149.363281 L 182.027344 152.589844 C 182.027344 152.59375 182.023438 152.59375 182.019531 152.597656 L 178.3125 157.300781 C 174.238281 158.574219 170.519531 158.269531 166.183594 154.855469 C 161.292969 151.003906 158.5 142.566406 164.699219 134.707031 C 169.335938 128.835938 176.683594 128.109375 183.527344 128.019531 C 189.820312 127.9375 196.328125 128.476562 201.707031 127.058594 C 202.214844 126.929688 202.699219 127.035156 203.097656 127.347656 C 203.496094 127.660156 203.707031 128.109375 203.703125 128.636719 C 203.585938 134.195312 205.621094 140.390625 207.011719 146.527344 Z M 207.011719 146.527344" fill-rule="evenodd"/></g></g></g></g></g></svg>